<?xml version="1.0" encoding="UTF-8" standalone="no"?>
<!DOCTYPE svg PUBLIC "-//W3C//DTD SVG 1.1//EN"
 "http://www.w3.org/Graphics/SVG/1.1/DTD/svg11.dtd">
<!-- Generated by graphviz version 2.44.1 (20200629.0846)
 -->
<!-- Title: G Pages: 1 -->
<svg width="1679pt" height="757pt"
 viewBox="0.00 0.00 1679.20 757.30" xmlns="http://www.w3.org/2000/svg" xmlns:xlink="http://www.w3.org/1999/xlink">
<g id="graph0" class="graph" transform="scale(1 1) rotate(0) translate(21.6 735.7)">
<title>G</title>
<polygon fill="#111111" stroke="transparent" points="-21.6,21.6 -21.6,-735.7 1657.6,-735.7 1657.6,21.6 -21.6,21.6"/>
<!-- contour.ts -->
<g id="node1" class="node">
<title>contour.ts</title>
<path fill="none" stroke="#ff6c60" d="M67.33,-103.5C67.33,-103.5 7.67,-103.5 7.67,-103.5 3.83,-103.5 0,-99.67 0,-95.83 0,-95.83 0,-88.17 0,-88.17 0,-84.33 3.83,-80.5 7.67,-80.5 7.67,-80.5 67.33,-80.5 67.33,-80.5 71.17,-80.5 75,-84.33 75,-88.17 75,-88.17 75,-95.83 75,-95.83 75,-99.67 71.17,-103.5 67.33,-103.5"/>
<text text-anchor="middle" x="37.5" y="-88.3" font-family="Arial" font-size="14.00" fill="#ff6c60">contour.ts</text>
</g>
<!-- strand.ts -->
<g id="node2" class="node">
<title>strand.ts</title>
<path fill="none" stroke="#ff6c60" d="M171.33,-217.5C171.33,-217.5 118.67,-217.5 118.67,-217.5 114.83,-217.5 111,-213.67 111,-209.83 111,-209.83 111,-202.17 111,-202.17 111,-198.33 114.83,-194.5 118.67,-194.5 118.67,-194.5 171.33,-194.5 171.33,-194.5 175.17,-194.5 179,-198.33 179,-202.17 179,-202.17 179,-209.83 179,-209.83 179,-213.67 175.17,-217.5 171.33,-217.5"/>
<text text-anchor="middle" x="145" y="-202.3" font-family="Arial" font-size="14.00" fill="#ff6c60">strand.ts</text>
</g>
<!-- contour.ts&#45;&gt;strand.ts -->
<g id="edge1" class="edge">
<title>contour.ts&#45;&gt;strand.ts</title>
<path fill="none" stroke="#757575" d="M49.39,-103.77C67.65,-123.5 104.58,-163.4 126.51,-187.1"/>
<polygon fill="#757575" stroke="#757575" points="123.96,-189.5 133.32,-194.46 129.1,-184.75 123.96,-189.5"/>
</g>
<!-- wasm&#45;interface.ts -->
<g id="node3" class="node">
<title>wasm&#45;interface.ts</title>
<path fill="none" stroke="#cfffac" d="M984.33,-31.5C984.33,-31.5 876.67,-31.5 876.67,-31.5 872.83,-31.5 869,-27.67 869,-23.83 869,-23.83 869,-16.17 869,-16.17 869,-12.33 872.83,-8.5 876.67,-8.5 876.67,-8.5 984.33,-8.5 984.33,-8.5 988.17,-8.5 992,-12.33 992,-16.17 992,-16.17 992,-23.83 992,-23.83 992,-27.67 988.17,-31.5 984.33,-31.5"/>
<text text-anchor="middle" x="930.5" y="-16.3" font-family="Arial" font-size="14.00" fill="#cfffac">wasm&#45;interface.ts</text>
</g>
<!-- contour.ts&#45;&gt;wasm&#45;interface.ts -->
<g id="edge2" class="edge">
<title>contour.ts&#45;&gt;wasm&#45;interface.ts</title>
<path fill="none" stroke="#757575" d="M53.2,-80.35C85.95,-55.59 168.27,0 247,0 247,0 247,0 655,0 724.39,0 803.38,-6.44 858.75,-12"/>
<polygon fill="#757575" stroke="#757575" points="858.5,-15.5 868.81,-13.03 859.22,-8.53 858.5,-15.5"/>
</g>
<!-- crossing&#45;point.ts -->
<g id="node4" class="node">
<title>crossing&#45;point.ts</title>
<path fill="none" stroke="#cfffac" d="M980.33,-348.5C980.33,-348.5 880.67,-348.5 880.67,-348.5 876.83,-348.5 873,-344.67 873,-340.83 873,-340.83 873,-333.17 873,-333.17 873,-329.33 876.83,-325.5 880.67,-325.5 880.67,-325.5 980.33,-325.5 980.33,-325.5 984.17,-325.5 988,-329.33 988,-333.17 988,-333.17 988,-340.83 988,-340.83 988,-344.67 984.17,-348.5 980.33,-348.5"/>
<text text-anchor="middle" x="930.5" y="-333.3" font-family="Arial" font-size="14.00" fill="#cfffac">crossing&#45;point.ts</text>
</g>
<!-- strand.ts&#45;&gt;crossing&#45;point.ts -->
<g id="edge40" class="edge">
<title>strand.ts&#45;&gt;crossing&#45;point.ts</title>
<path fill="none" stroke="#757575" d="M149.69,-217.62C165.22,-264.08 230.01,-434 346.5,-434 346.5,-434 346.5,-434 451,-434 614.72,-434 803.78,-378.78 886.74,-351.67"/>
<polygon fill="#757575" stroke="#757575" points="887.92,-354.97 896.32,-348.51 885.73,-348.32 887.92,-354.97"/>
</g>
<!-- frame.ts -->
<g id="node6" class="node">
<title>frame.ts</title>
<path fill="none" stroke="#ff6c60" d="M273.33,-293.5C273.33,-293.5 222.67,-293.5 222.67,-293.5 218.83,-293.5 215,-289.67 215,-285.83 215,-285.83 215,-278.17 215,-278.17 215,-274.33 218.83,-270.5 222.67,-270.5 222.67,-270.5 273.33,-270.5 273.33,-270.5 277.17,-270.5 281,-274.33 281,-278.17 281,-278.17 281,-285.83 281,-285.83 281,-289.67 277.17,-293.5 273.33,-293.5"/>
<text text-anchor="middle" x="248" y="-278.3" font-family="Arial" font-size="14.00" fill="#ff6c60">frame.ts</text>
</g>
<!-- strand.ts&#45;&gt;frame.ts -->
<g id="edge41" class="edge">
<title>strand.ts&#45;&gt;frame.ts</title>
<path fill="none" stroke="#757575" d="M161.34,-217.54C177.8,-229.93 204.16,-249.76 223.29,-264.16"/>
<polygon fill="#757575" stroke="#757575" points="221.42,-267.13 231.52,-270.35 225.63,-261.54 221.42,-267.13"/>
</g>
<!-- node.ts -->
<g id="node11" class="node">
<title>node.ts</title>
<path fill="none" stroke="#ff6c60" d="M370.33,-405.5C370.33,-405.5 324.67,-405.5 324.67,-405.5 320.83,-405.5 317,-401.67 317,-397.83 317,-397.83 317,-390.17 317,-390.17 317,-386.33 320.83,-382.5 324.67,-382.5 324.67,-382.5 370.33,-382.5 370.33,-382.5 374.17,-382.5 378,-386.33 378,-390.17 378,-390.17 378,-397.83 378,-397.83 378,-401.67 374.17,-405.5 370.33,-405.5"/>
<text text-anchor="middle" x="347.5" y="-390.3" font-family="Arial" font-size="14.00" fill="#ff6c60">node.ts</text>
</g>
<!-- strand.ts&#45;&gt;node.ts -->
<g id="edge43" class="edge">
<title>strand.ts&#45;&gt;node.ts</title>
<path fill="none" stroke="#757575" d="M152.52,-217.73C163.62,-237.03 187.64,-276 215,-303 245.89,-333.49 288.09,-360.68 316.27,-377.22"/>
<polygon fill="#757575" stroke="#757575" points="314.84,-380.44 325.25,-382.42 318.34,-374.38 314.84,-380.44"/>
</g>
<!-- line.ts -->
<g id="node13" class="node">
<title>line.ts</title>
<path fill="none" stroke="#ff6c60" d="M794.83,-329.5C794.83,-329.5 756.17,-329.5 756.17,-329.5 752.33,-329.5 748.5,-325.67 748.5,-321.83 748.5,-321.83 748.5,-314.17 748.5,-314.17 748.5,-310.33 752.33,-306.5 756.17,-306.5 756.17,-306.5 794.83,-306.5 794.83,-306.5 798.67,-306.5 802.5,-310.33 802.5,-314.17 802.5,-314.17 802.5,-321.83 802.5,-321.83 802.5,-325.67 798.67,-329.5 794.83,-329.5"/>
<text text-anchor="middle" x="775.5" y="-314.3" font-family="Arial" font-size="14.00" fill="#ff6c60">line.ts</text>
</g>
<!-- strand.ts&#45;&gt;line.ts -->
<g id="edge42" class="edge">
<title>strand.ts&#45;&gt;line.ts</title>
<path fill="none" stroke="#757575" d="M179.18,-208.01C264.12,-213.76 495.84,-233.14 682,-283 701.13,-288.12 721.81,-295.74 738.75,-302.56"/>
<polygon fill="#757575" stroke="#757575" points="737.67,-305.9 748.25,-306.45 740.32,-299.42 737.67,-305.9"/>
</g>
<!-- drawing.ts -->
<g id="node5" class="node">
<title>drawing.ts</title>
<path fill="none" stroke="#ff6c60" d="M1098.33,-407.5C1098.33,-407.5 1035.67,-407.5 1035.67,-407.5 1031.83,-407.5 1028,-403.67 1028,-399.83 1028,-399.83 1028,-392.17 1028,-392.17 1028,-388.33 1031.83,-384.5 1035.67,-384.5 1035.67,-384.5 1098.33,-384.5 1098.33,-384.5 1102.17,-384.5 1106,-388.33 1106,-392.17 1106,-392.17 1106,-399.83 1106,-399.83 1106,-403.67 1102.17,-407.5 1098.33,-407.5"/>
<text text-anchor="middle" x="1067" y="-392.3" font-family="Arial" font-size="14.00" fill="#ff6c60">drawing.ts</text>
</g>
<!-- drawing.ts&#45;&gt;frame.ts -->
<g id="edge3" class="edge">
<title>drawing.ts&#45;&gt;frame.ts</title>
<path fill="none" stroke="#757575" d="M1027.61,-392.13C916.87,-380.71 587.47,-344.82 317,-296 308.56,-294.48 299.56,-292.72 290.96,-290.97"/>
<polygon fill="#757575" stroke="#757575" points="291.61,-287.53 281.11,-288.95 290.2,-294.39 291.61,-287.53"/>
</g>
<!-- general&#45;utils.ts -->
<g id="node7" class="node">
<title>general&#45;utils.ts</title>
<path fill="none" stroke="#cfffac" d="M1628.33,-320.5C1628.33,-320.5 1539.67,-320.5 1539.67,-320.5 1535.83,-320.5 1532,-316.67 1532,-312.83 1532,-312.83 1532,-305.17 1532,-305.17 1532,-301.33 1535.83,-297.5 1539.67,-297.5 1539.67,-297.5 1628.33,-297.5 1628.33,-297.5 1632.17,-297.5 1636,-301.33 1636,-305.17 1636,-305.17 1636,-312.83 1636,-312.83 1636,-316.67 1632.17,-320.5 1628.33,-320.5"/>
<text text-anchor="middle" x="1584" y="-305.3" font-family="Arial" font-size="14.00" fill="#cfffac">general&#45;utils.ts</text>
</g>
<!-- drawing.ts&#45;&gt;general&#45;utils.ts -->
<g id="edge4" class="edge">
<title>drawing.ts&#45;&gt;general&#45;utils.ts</title>
<path fill="none" stroke="#757575" d="M1106.29,-389.53C1194.81,-374.58 1414.27,-337.5 1521.73,-319.35"/>
<polygon fill="#757575" stroke="#757575" points="1522.5,-322.77 1531.77,-317.65 1521.33,-315.87 1522.5,-322.77"/>
</g>
<!-- knot.ts -->
<g id="node8" class="node">
<title>knot.ts</title>
<path fill="none" stroke="#ff6c60" d="M674.33,-179.5C674.33,-179.5 633.67,-179.5 633.67,-179.5 629.83,-179.5 626,-175.67 626,-171.83 626,-171.83 626,-164.17 626,-164.17 626,-160.33 629.83,-156.5 633.67,-156.5 633.67,-156.5 674.33,-156.5 674.33,-156.5 678.17,-156.5 682,-160.33 682,-164.17 682,-164.17 682,-171.83 682,-171.83 682,-175.67 678.17,-179.5 674.33,-179.5"/>
<text text-anchor="middle" x="654" y="-164.3" font-family="Arial" font-size="14.00" fill="#ff6c60">knot.ts</text>
</g>
<!-- drawing.ts&#45;&gt;knot.ts -->
<g id="edge5" class="edge">
<title>drawing.ts&#45;&gt;knot.ts</title>
<path fill="none" stroke="#757575" d="M1058.39,-384.4C1046.39,-367.05 1021.38,-334.51 992,-317 883.84,-252.53 823.94,-313.05 718,-245 695.81,-230.74 677.67,-206.09 666.65,-188.52"/>
<polygon fill="#757575" stroke="#757575" points="669.44,-186.37 661.28,-179.6 663.44,-189.98 669.44,-186.37"/>
</g>
<!-- model.ts -->
<g id="node9" class="node">
<title>model.ts</title>
<path fill="none" stroke="#ff6c60" d="M582.33,-541.5C582.33,-541.5 529.67,-541.5 529.67,-541.5 525.83,-541.5 522,-537.67 522,-533.83 522,-533.83 522,-526.17 522,-526.17 522,-522.33 525.83,-518.5 529.67,-518.5 529.67,-518.5 582.33,-518.5 582.33,-518.5 586.17,-518.5 590,-522.33 590,-526.17 590,-526.17 590,-533.83 590,-533.83 590,-537.67 586.17,-541.5 582.33,-541.5"/>
<text text-anchor="middle" x="556" y="-526.3" font-family="Arial" font-size="14.00" fill="#ff6c60">model.ts</text>
</g>
<!-- drawing.ts&#45;&gt;model.ts -->
<g id="edge6" class="edge">
<title>drawing.ts&#45;&gt;model.ts</title>
<path fill="none" stroke="#757575" d="M1060.37,-407.56C1049.98,-427.5 1025.7,-467.95 992,-486 925.01,-521.88 696.67,-528.55 600.38,-529.75"/>
<polygon fill="#757575" stroke="#757575" points="600.09,-526.26 590.13,-529.87 600.16,-533.26 600.09,-526.26"/>
</g>
<!-- mouse.ts -->
<g id="node10" class="node">
<title>mouse.ts</title>
<path fill="none" stroke="#ff6c60" d="M478.33,-504.5C478.33,-504.5 421.67,-504.5 421.67,-504.5 417.83,-504.5 414,-500.67 414,-496.83 414,-496.83 414,-489.17 414,-489.17 414,-485.33 417.83,-481.5 421.67,-481.5 421.67,-481.5 478.33,-481.5 478.33,-481.5 482.17,-481.5 486,-485.33 486,-489.17 486,-489.17 486,-496.83 486,-496.83 486,-500.67 482.17,-504.5 478.33,-504.5"/>
<text text-anchor="middle" x="450" y="-489.3" font-family="Arial" font-size="14.00" fill="#ff6c60">mouse.ts</text>
</g>
<!-- drawing.ts&#45;&gt;mouse.ts -->
<g id="edge7" class="edge">
<title>drawing.ts&#45;&gt;mouse.ts</title>
<path fill="none" stroke="#757575" d="M1053.78,-407.56C1039.97,-419.88 1016.23,-438.83 992,-448 901.87,-482.1 872.87,-472 776.5,-472 653,-472 653,-472 653,-472 598.88,-472 537.04,-479.55 496.19,-485.6"/>
<polygon fill="#757575" stroke="#757575" points="495.64,-482.14 486.28,-487.09 496.69,-489.06 495.64,-482.14"/>
</g>
<!-- drawing.ts&#45;&gt;node.ts -->
<g id="edge8" class="edge">
<title>drawing.ts&#45;&gt;node.ts</title>
<path fill="none" stroke="#757575" d="M1027.79,-404.64C1016.34,-406.84 1003.72,-408.9 992,-410 764.18,-431.36 489.14,-408.32 388.15,-398.23"/>
<polygon fill="#757575" stroke="#757575" points="388.39,-394.74 378.09,-397.22 387.69,-401.71 388.39,-394.74"/>
</g>
<!-- webgl/draw&#45;webgl.ts -->
<g id="node12" class="node">
<title>webgl/draw&#45;webgl.ts</title>
<path fill="none" stroke="#ff6c60" d="M1273.33,-595.5C1273.33,-595.5 1149.67,-595.5 1149.67,-595.5 1145.83,-595.5 1142,-591.67 1142,-587.83 1142,-587.83 1142,-580.17 1142,-580.17 1142,-576.33 1145.83,-572.5 1149.67,-572.5 1149.67,-572.5 1273.33,-572.5 1273.33,-572.5 1277.17,-572.5 1281,-576.33 1281,-580.17 1281,-580.17 1281,-587.83 1281,-587.83 1281,-591.67 1277.17,-595.5 1273.33,-595.5"/>
<text text-anchor="middle" x="1211.5" y="-580.3" font-family="Arial" font-size="14.00" fill="#ff6c60">webgl/draw&#45;webgl.ts</text>
</g>
<!-- drawing.ts&#45;&gt;webgl/draw&#45;webgl.ts -->
<g id="edge9" class="edge">
<title>drawing.ts&#45;&gt;webgl/draw&#45;webgl.ts</title>
<path fill="none" stroke="#757575" d="M1076.91,-407.76C1100.71,-439.15 1165.9,-525.16 1195.51,-564.23"/>
<polygon fill="#757575" stroke="#757575" points="1192.76,-566.39 1201.59,-572.24 1198.34,-562.16 1192.76,-566.39"/>
</g>
<!-- frame.ts&#45;&gt;node.ts -->
<g id="edge11" class="edge">
<title>frame.ts&#45;&gt;node.ts</title>
<path fill="none" stroke="#757575" d="M257.19,-293.66C269.39,-310.72 293.43,-343.14 317,-368 319.35,-370.48 321.9,-372.98 324.5,-375.4"/>
<polygon fill="#757575" stroke="#757575" points="322.44,-378.25 332.22,-382.32 327.11,-373.04 322.44,-378.25"/>
</g>
<!-- frame.ts&#45;&gt;line.ts -->
<g id="edge10" class="edge">
<title>frame.ts&#45;&gt;line.ts</title>
<path fill="none" stroke="#757575" d="M281.21,-282C320.74,-282 389.8,-282 449,-282 449,-282 449,-282 557,-282 621.53,-282 695.4,-297.61 738.32,-308.28"/>
<polygon fill="#757575" stroke="#757575" points="737.73,-311.74 748.28,-310.8 739.45,-304.95 737.73,-311.74"/>
</g>
<!-- knot.ts&#45;&gt;contour.ts -->
<g id="edge14" class="edge">
<title>knot.ts&#45;&gt;contour.ts</title>
<path fill="none" stroke="#757575" d="M625.69,-164.62C529.63,-152.74 206.64,-112.8 85.19,-97.78"/>
<polygon fill="#757575" stroke="#757575" points="85.45,-94.28 75.1,-96.53 84.59,-101.23 85.45,-94.28"/>
</g>
<!-- knot.ts&#45;&gt;strand.ts -->
<g id="edge21" class="edge">
<title>knot.ts&#45;&gt;strand.ts</title>
<path fill="none" stroke="#757575" d="M625.88,-168C587.11,-168 513.6,-168 451,-168 346.5,-168 346.5,-168 346.5,-168 291.47,-168 229.4,-181.99 189.1,-192.99"/>
<polygon fill="#757575" stroke="#757575" points="188.03,-189.66 179.34,-195.72 189.91,-196.4 188.03,-189.66"/>
</g>
<!-- knot.ts&#45;&gt;frame.ts -->
<g id="edge15" class="edge">
<title>knot.ts&#45;&gt;frame.ts</title>
<path fill="none" stroke="#757575" d="M625.83,-175.67C556.7,-195.17 373.76,-246.79 290.87,-270.18"/>
<polygon fill="#757575" stroke="#757575" points="289.71,-266.88 281.04,-272.96 291.61,-273.61 289.71,-266.88"/>
</g>
<!-- knot.ts&#45;&gt;line.ts -->
<g id="edge17" class="edge">
<title>knot.ts&#45;&gt;line.ts</title>
<path fill="none" stroke="#757575" d="M660.44,-179.78C674.05,-209.07 709.08,-283.42 718,-292 724.03,-297.8 731.59,-302.47 739.19,-306.17"/>
<polygon fill="#757575" stroke="#757575" points="737.83,-309.39 748.4,-310.2 740.64,-302.98 737.83,-309.39"/>
</g>
<!-- knot&#45;utils.ts -->
<g id="node15" class="node">
<title>knot&#45;utils.ts</title>
<path fill="none" stroke="#cfffac" d="M965.33,-131.5C965.33,-131.5 895.67,-131.5 895.67,-131.5 891.83,-131.5 888,-127.67 888,-123.83 888,-123.83 888,-116.17 888,-116.17 888,-112.33 891.83,-108.5 895.67,-108.5 895.67,-108.5 965.33,-108.5 965.33,-108.5 969.17,-108.5 973,-112.33 973,-116.17 973,-116.17 973,-123.83 973,-123.83 973,-127.67 969.17,-131.5 965.33,-131.5"/>
<text text-anchor="middle" x="930.5" y="-116.3" font-family="Arial" font-size="14.00" fill="#cfffac">knot&#45;utils.ts</text>
</g>
<!-- knot.ts&#45;&gt;knot&#45;utils.ts -->
<g id="edge16" class="edge">
<title>knot.ts&#45;&gt;knot&#45;utils.ts</title>
<path fill="none" stroke="#757575" d="M661.3,-156.48C670.99,-140.11 691.29,-110.78 718,-99 774.38,-74.13 847.2,-90.64 891.02,-105.13"/>
<polygon fill="#757575" stroke="#757575" points="890.12,-108.52 900.71,-108.46 892.39,-101.9 890.12,-108.52"/>
</g>
<!-- offset&#45;sketch.ts -->
<g id="node16" class="node">
<title>offset&#45;sketch.ts</title>
<path fill="none" stroke="#ff6c60" d="M821.33,-51.5C821.33,-51.5 729.67,-51.5 729.67,-51.5 725.83,-51.5 722,-47.67 722,-43.83 722,-43.83 722,-36.17 722,-36.17 722,-32.33 725.83,-28.5 729.67,-28.5 729.67,-28.5 821.33,-28.5 821.33,-28.5 825.17,-28.5 829,-32.33 829,-36.17 829,-36.17 829,-43.83 829,-43.83 829,-47.67 825.17,-51.5 821.33,-51.5"/>
<text text-anchor="middle" x="775.5" y="-36.3" font-family="Arial" font-size="14.00" fill="#ff6c60">offset&#45;sketch.ts</text>
</g>
<!-- knot.ts&#45;&gt;offset&#45;sketch.ts -->
<g id="edge18" class="edge">
<title>knot.ts&#45;&gt;offset&#45;sketch.ts</title>
<path fill="none" stroke="#757575" d="M659.5,-156.38C668.03,-135.7 688.38,-92.21 718,-66 722.14,-62.33 726.89,-59.09 731.84,-56.25"/>
<polygon fill="#757575" stroke="#757575" points="733.6,-59.28 740.87,-51.57 730.38,-53.07 733.6,-59.28"/>
</g>
<!-- options.ts -->
<g id="node17" class="node">
<title>options.ts</title>
<path fill="none" stroke="#ff6c60" d="M959.83,-249.5C959.83,-249.5 901.17,-249.5 901.17,-249.5 897.33,-249.5 893.5,-245.67 893.5,-241.83 893.5,-241.83 893.5,-234.17 893.5,-234.17 893.5,-230.33 897.33,-226.5 901.17,-226.5 901.17,-226.5 959.83,-226.5 959.83,-226.5 963.67,-226.5 967.5,-230.33 967.5,-234.17 967.5,-234.17 967.5,-241.83 967.5,-241.83 967.5,-245.67 963.67,-249.5 959.83,-249.5"/>
<text text-anchor="middle" x="930.5" y="-234.3" font-family="Arial" font-size="14.00" fill="#ff6c60">options.ts</text>
</g>
<!-- knot.ts&#45;&gt;options.ts -->
<g id="edge19" class="edge">
<title>knot.ts&#45;&gt;options.ts</title>
<path fill="none" stroke="#757575" d="M664.75,-179.7C676.08,-192.38 696.05,-211.98 718,-221 771.47,-242.97 838.85,-244.39 883.01,-242.2"/>
<polygon fill="#757575" stroke="#757575" points="883.38,-245.69 893.16,-241.62 882.97,-238.7 883.38,-245.69"/>
</g>
<!-- pointed&#45;return.ts -->
<g id="node18" class="node">
<title>pointed&#45;return.ts</title>
<path fill="none" stroke="#c6c5fe" d="M825.33,-131.5C825.33,-131.5 725.67,-131.5 725.67,-131.5 721.83,-131.5 718,-127.67 718,-123.83 718,-123.83 718,-116.17 718,-116.17 718,-112.33 721.83,-108.5 725.67,-108.5 725.67,-108.5 825.33,-108.5 825.33,-108.5 829.17,-108.5 833,-112.33 833,-116.17 833,-116.17 833,-123.83 833,-123.83 833,-127.67 829.17,-131.5 825.33,-131.5"/>
<text text-anchor="middle" x="775.5" y="-116.3" font-family="Arial" font-size="14.00" fill="#c6c5fe">pointed&#45;return.ts</text>
</g>
<!-- knot.ts&#45;&gt;pointed&#45;return.ts -->
<g id="edge20" class="edge">
<title>knot.ts&#45;&gt;pointed&#45;return.ts</title>
<path fill="none" stroke="#757575" d="M682.12,-157.11C698.15,-150.67 718.71,-142.41 736.36,-135.32"/>
<polygon fill="#757575" stroke="#757575" points="737.85,-138.49 745.82,-131.52 735.24,-132 737.85,-138.49"/>
</g>
<!-- model.ts&#45;&gt;knot.ts -->
<g id="edge28" class="edge">
<title>model.ts&#45;&gt;knot.ts</title>
<path fill="none" stroke="#757575" d="M560.09,-518.37C573.77,-466.78 629.07,-258.23 647.21,-189.84"/>
<polygon fill="#757575" stroke="#757575" points="650.7,-190.34 649.88,-179.77 643.93,-188.54 650.7,-190.34"/>
</g>
<!-- mouse.ts&#45;&gt;model.ts -->
<g id="edge29" class="edge">
<title>mouse.ts&#45;&gt;model.ts</title>
<path fill="none" stroke="#757575" d="M483.34,-504.5C492.64,-507.81 502.92,-511.47 512.73,-514.96"/>
<polygon fill="#757575" stroke="#757575" points="511.73,-518.32 522.33,-518.38 514.08,-511.73 511.73,-518.32"/>
</g>
<!-- node.ts&#45;&gt;general&#45;utils.ts -->
<g id="edge30" class="edge">
<title>node.ts&#45;&gt;general&#45;utils.ts</title>
<path fill="none" stroke="#757575" d="M350.38,-405.62C360.11,-461.52 410.16,-700 555,-700 555,-700 555,-700 1212.5,-700 1339.51,-700 1401.22,-748.55 1496,-664 1546.69,-618.79 1573.44,-400.93 1580.84,-330.8"/>
<polygon fill="#757575" stroke="#757575" points="1584.36,-330.82 1581.9,-320.52 1577.4,-330.11 1584.36,-330.82"/>
</g>
<!-- node.ts&#45;&gt;mouse.ts -->
<g id="edge31" class="edge">
<title>node.ts&#45;&gt;mouse.ts</title>
<path fill="none" stroke="#757575" d="M360.42,-405.75C377.57,-422.64 409.39,-453.98 429.86,-474.14"/>
<polygon fill="#757575" stroke="#757575" points="427.51,-476.75 437.09,-481.27 432.42,-471.76 427.51,-476.75"/>
</g>
<!-- webgl/draw&#45;webgl.ts&#45;&gt;model.ts -->
<g id="edge45" class="edge">
<title>webgl/draw&#45;webgl.ts&#45;&gt;model.ts</title>
<path fill="none" stroke="#757575" d="M1141.99,-584.76C1085.51,-585.33 1003.31,-586 931.5,-586 774.5,-586 774.5,-586 774.5,-586 707.64,-586 689.92,-581.58 626,-562 612.75,-557.94 598.77,-551.83 586.88,-546.04"/>
<polygon fill="#757575" stroke="#757575" points="588.36,-542.86 577.85,-541.5 585.22,-549.12 588.36,-542.86"/>
</g>
<!-- graph.ts -->
<g id="node14" class="node">
<title>graph.ts</title>
<path fill="none" stroke="#ff6c60" d="M1431.33,-654.5C1431.33,-654.5 1381.67,-654.5 1381.67,-654.5 1377.83,-654.5 1374,-650.67 1374,-646.83 1374,-646.83 1374,-639.17 1374,-639.17 1374,-635.33 1377.83,-631.5 1381.67,-631.5 1381.67,-631.5 1431.33,-631.5 1431.33,-631.5 1435.17,-631.5 1439,-635.33 1439,-639.17 1439,-639.17 1439,-646.83 1439,-646.83 1439,-650.67 1435.17,-654.5 1431.33,-654.5"/>
<text text-anchor="middle" x="1406.5" y="-639.3" font-family="Arial" font-size="14.00" fill="#ff6c60">graph.ts</text>
</g>
<!-- webgl/draw&#45;webgl.ts&#45;&gt;graph.ts -->
<g id="edge44" class="edge">
<title>webgl/draw&#45;webgl.ts&#45;&gt;graph.ts</title>
<path fill="none" stroke="#757575" d="M1242.7,-595.51C1270.86,-606.2 1309.6,-620.79 1317,-623 1332.09,-627.5 1348.88,-631.53 1363.75,-634.78"/>
<polygon fill="#757575" stroke="#757575" points="1363.18,-638.24 1373.69,-636.9 1364.64,-631.39 1363.18,-638.24"/>
</g>
<!-- primitives.ts -->
<g id="node20" class="node">
<title>primitives.ts</title>
<path fill="none" stroke="#ff6c60" d="M1443.33,-397.5C1443.33,-397.5 1369.67,-397.5 1369.67,-397.5 1365.83,-397.5 1362,-393.67 1362,-389.83 1362,-389.83 1362,-382.17 1362,-382.17 1362,-378.33 1365.83,-374.5 1369.67,-374.5 1369.67,-374.5 1443.33,-374.5 1443.33,-374.5 1447.17,-374.5 1451,-378.33 1451,-382.17 1451,-382.17 1451,-389.83 1451,-389.83 1451,-393.67 1447.17,-397.5 1443.33,-397.5"/>
<text text-anchor="middle" x="1406.5" y="-382.3" font-family="Arial" font-size="14.00" fill="#ff6c60">primitives.ts</text>
</g>
<!-- webgl/draw&#45;webgl.ts&#45;&gt;primitives.ts -->
<g id="edge46" class="edge">
<title>webgl/draw&#45;webgl.ts&#45;&gt;primitives.ts</title>
<path fill="none" stroke="#757575" d="M1255.76,-572.48C1264.71,-568.81 1273.64,-564.07 1281,-558 1304.42,-538.71 1299.67,-524.91 1317,-500 1340.85,-465.71 1371.17,-427.74 1389.41,-405.42"/>
<polygon fill="#757575" stroke="#757575" points="1392.14,-407.62 1395.78,-397.67 1386.73,-403.18 1392.14,-407.62"/>
</g>
<!-- webgl/fragment&#45;shader.glsl -->
<g id="node21" class="node">
<title>webgl/fragment&#45;shader.glsl</title>
<path fill="none" stroke="#cfffac" d="M1488.33,-572.5C1488.33,-572.5 1324.67,-572.5 1324.67,-572.5 1320.83,-572.5 1317,-568.67 1317,-564.83 1317,-564.83 1317,-557.17 1317,-557.17 1317,-553.33 1320.83,-549.5 1324.67,-549.5 1324.67,-549.5 1488.33,-549.5 1488.33,-549.5 1492.17,-549.5 1496,-553.33 1496,-557.17 1496,-557.17 1496,-564.83 1496,-564.83 1496,-568.67 1492.17,-572.5 1488.33,-572.5"/>
<text text-anchor="middle" x="1406.5" y="-557.3" font-family="Arial" font-size="14.00" fill="#cfffac">webgl/fragment&#45;shader.glsl</text>
</g>
<!-- webgl/draw&#45;webgl.ts&#45;&gt;webgl/fragment&#45;shader.glsl -->
<g id="edge47" class="edge">
<title>webgl/draw&#45;webgl.ts&#45;&gt;webgl/fragment&#45;shader.glsl</title>
<path fill="none" stroke="#757575" d="M1281.09,-575.83C1289.42,-574.83 1298.06,-573.8 1306.72,-572.77"/>
<polygon fill="#757575" stroke="#757575" points="1307.36,-576.22 1316.88,-571.56 1306.54,-569.27 1307.36,-576.22"/>
</g>
<!-- webgl/init&#45;shaders.ts -->
<g id="node22" class="node">
<title>webgl/init&#45;shaders.ts</title>
<path fill="none" stroke="#cfffac" d="M1468.83,-531.5C1468.83,-531.5 1344.17,-531.5 1344.17,-531.5 1340.33,-531.5 1336.5,-527.67 1336.5,-523.83 1336.5,-523.83 1336.5,-516.17 1336.5,-516.17 1336.5,-512.33 1340.33,-508.5 1344.17,-508.5 1344.17,-508.5 1468.83,-508.5 1468.83,-508.5 1472.67,-508.5 1476.5,-512.33 1476.5,-516.17 1476.5,-516.17 1476.5,-523.83 1476.5,-523.83 1476.5,-527.67 1472.67,-531.5 1468.83,-531.5"/>
<text text-anchor="middle" x="1406.5" y="-516.3" font-family="Arial" font-size="14.00" fill="#cfffac">webgl/init&#45;shaders.ts</text>
</g>
<!-- webgl/draw&#45;webgl.ts&#45;&gt;webgl/init&#45;shaders.ts -->
<g id="edge48" class="edge">
<title>webgl/draw&#45;webgl.ts&#45;&gt;webgl/init&#45;shaders.ts</title>
<path fill="none" stroke="#757575" d="M1244.42,-572.48C1256.02,-568.13 1269.18,-563.03 1281,-558 1297.28,-551.08 1300.3,-546.85 1317,-541 1324.05,-538.53 1331.51,-536.26 1338.99,-534.19"/>
<polygon fill="#757575" stroke="#757575" points="1340.04,-537.54 1348.81,-531.6 1338.25,-530.77 1340.04,-537.54"/>
</g>
<!-- webgl/vertex&#45;shader.glsl -->
<g id="node23" class="node">
<title>webgl/vertex&#45;shader.glsl</title>
<path fill="none" stroke="#cfffac" d="M1479.33,-613.5C1479.33,-613.5 1333.67,-613.5 1333.67,-613.5 1329.83,-613.5 1326,-609.67 1326,-605.83 1326,-605.83 1326,-598.17 1326,-598.17 1326,-594.33 1329.83,-590.5 1333.67,-590.5 1333.67,-590.5 1479.33,-590.5 1479.33,-590.5 1483.17,-590.5 1487,-594.33 1487,-598.17 1487,-598.17 1487,-605.83 1487,-605.83 1487,-609.67 1483.17,-613.5 1479.33,-613.5"/>
<text text-anchor="middle" x="1406.5" y="-598.3" font-family="Arial" font-size="14.00" fill="#cfffac">webgl/vertex&#45;shader.glsl</text>
</g>
<!-- webgl/draw&#45;webgl.ts&#45;&gt;webgl/vertex&#45;shader.glsl -->
<g id="edge49" class="edge">
<title>webgl/draw&#45;webgl.ts&#45;&gt;webgl/vertex&#45;shader.glsl</title>
<path fill="none" stroke="#757575" d="M1281.09,-590.4C1292.32,-591.44 1304.1,-592.54 1315.75,-593.63"/>
<polygon fill="#757575" stroke="#757575" points="1315.65,-597.14 1325.93,-594.58 1316.3,-590.17 1315.65,-597.14"/>
</g>
<!-- line.ts&#45;&gt;crossing&#45;point.ts -->
<g id="edge22" class="edge">
<title>line.ts&#45;&gt;crossing&#45;point.ts</title>
<path fill="none" stroke="#757575" d="M802.8,-321.27C819.4,-323.33 841.64,-326.09 862.85,-328.72"/>
<polygon fill="#757575" stroke="#757575" points="862.47,-332.2 872.82,-329.96 863.33,-325.26 862.47,-332.2"/>
</g>
<!-- line.ts&#45;&gt;node.ts -->
<g id="edge24" class="edge">
<title>line.ts&#45;&gt;node.ts</title>
<path fill="none" stroke="#757575" d="M748.47,-322.52C718.82,-327.69 668.91,-336.4 626,-344 531.74,-360.7 508.19,-364.93 414,-382 405.67,-383.51 396.75,-385.14 388.25,-386.69"/>
<polygon fill="#757575" stroke="#757575" points="387.37,-383.29 378.17,-388.54 388.63,-390.18 387.37,-383.29"/>
</g>
<!-- line.ts&#45;&gt;knot&#45;utils.ts -->
<g id="edge23" class="edge">
<title>line.ts&#45;&gt;knot&#45;utils.ts</title>
<path fill="none" stroke="#757575" d="M785.39,-306.5C810.58,-273.9 882.68,-180.59 914.31,-139.65"/>
<polygon fill="#757575" stroke="#757575" points="917.24,-141.59 920.59,-131.53 911.7,-137.31 917.24,-141.59"/>
</g>
<!-- graph.ts&#45;&gt;model.ts -->
<g id="edge12" class="edge">
<title>graph.ts&#45;&gt;model.ts</title>
<path fill="none" stroke="#757575" d="M1373.89,-640.03C1314.18,-634.69 1180.68,-624 1068,-624 774.5,-624 774.5,-624 774.5,-624 706.03,-624 687.29,-613.53 626,-583 607.86,-573.96 589.78,-559.84 576.69,-548.45"/>
<polygon fill="#757575" stroke="#757575" points="579.01,-545.83 569.22,-541.78 574.34,-551.05 579.01,-545.83"/>
</g>
<!-- graph.ts&#45;&gt;mouse.ts -->
<g id="edge13" class="edge">
<title>graph.ts&#45;&gt;mouse.ts</title>
<path fill="none" stroke="#757575" d="M1373.89,-645.97C1314.18,-651.31 1180.68,-662 1068,-662 653,-662 653,-662 653,-662 561.41,-662 489.48,-558.54 462.52,-513.52"/>
<polygon fill="#757575" stroke="#757575" points="465.39,-511.49 457.32,-504.62 459.34,-515.02 465.39,-511.49"/>
</g>
<!-- offset&#45;sketch.ts&#45;&gt;strand.ts -->
<g id="edge34" class="edge">
<title>offset&#45;sketch.ts&#45;&gt;strand.ts</title>
<path fill="none" stroke="#757575" d="M721.93,-47.66C621.26,-63.32 395.26,-103.26 215,-170 200.96,-175.2 186.16,-182.64 173.87,-189.4"/>
<polygon fill="#757575" stroke="#757575" points="172.01,-186.44 165.03,-194.4 175.46,-192.53 172.01,-186.44"/>
</g>
<!-- offset&#45;sketch.ts&#45;&gt;general&#45;utils.ts -->
<g id="edge32" class="edge">
<title>offset&#45;sketch.ts&#45;&gt;general&#45;utils.ts</title>
<path fill="none" stroke="#757575" d="M829.16,-48.76C887.04,-57.61 982.88,-70 1066,-70 1066,-70 1066,-70 1212.5,-70 1374.13,-70 1521.2,-232.61 1567.76,-289.57"/>
<polygon fill="#757575" stroke="#757575" points="1565.12,-291.88 1574.12,-297.47 1570.57,-287.49 1565.12,-291.88"/>
</g>
<!-- offset&#45;sketch.ts&#45;&gt;options.ts -->
<g id="edge33" class="edge">
<title>offset&#45;sketch.ts&#45;&gt;options.ts</title>
<path fill="none" stroke="#757575" d="M788.77,-51.69C800.62,-63.24 818.82,-81.65 833,-99 865.77,-139.08 899.15,-189.85 916.77,-217.59"/>
<polygon fill="#757575" stroke="#757575" points="914.03,-219.8 922.32,-226.39 919.95,-216.07 914.03,-219.8"/>
</g>
<!-- options.ts&#45;&gt;drawing.ts -->
<g id="edge35" class="edge">
<title>options.ts&#45;&gt;drawing.ts</title>
<path fill="none" stroke="#757575" d="M967.7,-249.01C976.32,-252.81 985.03,-257.73 992,-264 1026.46,-295.01 1048.57,-345.99 1058.99,-374.67"/>
<polygon fill="#757575" stroke="#757575" points="1055.81,-376.19 1062.41,-384.48 1062.42,-373.89 1055.81,-376.19"/>
</g>
<!-- pointed&#45;return.ts&#45;&gt;knot&#45;utils.ts -->
<g id="edge36" class="edge">
<title>pointed&#45;return.ts&#45;&gt;knot&#45;utils.ts</title>
<path fill="none" stroke="#757575" d="M833.04,-120C847.56,-120 863.11,-120 877.4,-120"/>
<polygon fill="#757575" stroke="#757575" points="877.54,-123.5 887.54,-120 877.54,-116.5 877.54,-123.5"/>
</g>
<!-- main.tsx -->
<g id="node19" class="node">
<title>main.tsx</title>
<path fill="none" stroke="#c6c5fe" d="M801.83,-211.5C801.83,-211.5 749.17,-211.5 749.17,-211.5 745.33,-211.5 741.5,-207.67 741.5,-203.83 741.5,-203.83 741.5,-196.17 741.5,-196.17 741.5,-192.33 745.33,-188.5 749.17,-188.5 749.17,-188.5 801.83,-188.5 801.83,-188.5 805.67,-188.5 809.5,-192.33 809.5,-196.17 809.5,-196.17 809.5,-203.83 809.5,-203.83 809.5,-207.67 805.67,-211.5 801.83,-211.5"/>
<text text-anchor="middle" x="775.5" y="-196.3" font-family="Arial" font-size="14.00" fill="#c6c5fe">main.tsx</text>
</g>
<!-- main.tsx&#45;&gt;wasm&#45;interface.ts -->
<g id="edge27" class="edge">
<title>main.tsx&#45;&gt;wasm&#45;interface.ts</title>
<path fill="none" stroke="#757575" d="M788.04,-188.3C799.66,-176.39 817.97,-157.27 833,-140 862.86,-105.7 895.65,-64 914.28,-39.88"/>
<polygon fill="#757575" stroke="#757575" points="917.15,-41.89 920.48,-31.83 911.61,-37.62 917.15,-41.89"/>
</g>
<!-- main.tsx&#45;&gt;drawing.ts -->
<g id="edge25" class="edge">
<title>main.tsx&#45;&gt;drawing.ts</title>
<path fill="none" stroke="#757575" d="M809.67,-192.96C855.38,-185.27 938.16,-178.74 992,-218 1043.44,-255.51 1059.29,-335.56 1064.04,-374.21"/>
<polygon fill="#757575" stroke="#757575" points="1060.59,-374.81 1065.15,-384.37 1067.54,-374.05 1060.59,-374.81"/>
</g>
<!-- main.tsx&#45;&gt;options.ts -->
<g id="edge26" class="edge">
<title>main.tsx&#45;&gt;options.ts</title>
<path fill="none" stroke="#757575" d="M809.7,-208.25C831.31,-213.61 859.79,-220.69 883.56,-226.59"/>
<polygon fill="#757575" stroke="#757575" points="882.88,-230.03 893.43,-229.04 884.57,-223.23 882.88,-230.03"/>
</g>
<!-- primitives.ts&#45;&gt;general&#45;utils.ts -->
<g id="edge37" class="edge">
<title>primitives.ts&#45;&gt;general&#45;utils.ts</title>
<path fill="none" stroke="#757575" d="M1433.77,-374.47C1463.89,-361.26 1513.41,-339.53 1547.07,-324.76"/>
<polygon fill="#757575" stroke="#757575" points="1548.8,-327.83 1556.55,-320.61 1545.98,-321.42 1548.8,-327.83"/>
</g>
<!-- primitives.ts&#45;&gt;knot.ts -->
<g id="edge38" class="edge">
<title>primitives.ts&#45;&gt;knot.ts</title>
<path fill="none" stroke="#757575" d="M1397.04,-374.48C1362.14,-328.43 1223.84,-160 1068,-160 929.5,-160 929.5,-160 929.5,-160 844.75,-160 745.35,-163.86 692.5,-166.21"/>
<polygon fill="#757575" stroke="#757575" points="692.1,-162.73 682.27,-166.68 692.41,-169.72 692.1,-162.73"/>
</g>
<!-- primitives.ts&#45;&gt;model.ts -->
<g id="edge39" class="edge">
<title>primitives.ts&#45;&gt;model.ts</title>
<path fill="none" stroke="#757575" d="M1374.87,-397.52C1306.96,-422.6 1138.18,-482.44 992,-514 922.38,-529.03 904.08,-529.55 833,-534 741.18,-539.75 717.96,-536.66 626,-534 617.73,-533.76 608.91,-533.36 600.43,-532.9"/>
<polygon fill="#757575" stroke="#757575" points="600.51,-529.4 590.32,-532.32 600.11,-536.39 600.51,-529.4"/>
</g>
</g>
</svg>
