<?xml version="1.0" encoding="UTF-8" standalone="no"?>
<!DOCTYPE svg PUBLIC "-//W3C//DTD SVG 1.1//EN"
 "http://www.w3.org/Graphics/SVG/1.1/DTD/svg11.dtd">
<!-- Generated by graphviz version 2.44.1 (20200629.0846)
 -->
<!-- Title: G Pages: 1 -->
<svg width="1592pt" height="1359pt"
 viewBox="0.00 0.00 1592.20 1358.94" xmlns="http://www.w3.org/2000/svg" xmlns:xlink="http://www.w3.org/1999/xlink">
<g id="graph0" class="graph" transform="scale(1 1) rotate(0) translate(21.6 1337.34)">
<title>G</title>
<polygon fill="#111111" stroke="transparent" points="-21.6,21.6 -21.6,-1337.34 1570.6,-1337.34 1570.6,21.6 -21.6,21.6"/>
<!-- config.ts -->
<g id="node1" class="node">
<title>config.ts</title>
<path fill="none" stroke="#cfffac" d="M1423.83,-1060.67C1423.83,-1060.67 1372.17,-1060.67 1372.17,-1060.67 1368.33,-1060.67 1364.5,-1056.84 1364.5,-1053.01 1364.5,-1053.01 1364.5,-1045.34 1364.5,-1045.34 1364.5,-1041.51 1368.33,-1037.67 1372.17,-1037.67 1372.17,-1037.67 1423.83,-1037.67 1423.83,-1037.67 1427.67,-1037.67 1431.5,-1041.51 1431.5,-1045.34 1431.5,-1045.34 1431.5,-1053.01 1431.5,-1053.01 1431.5,-1056.84 1427.67,-1060.67 1423.83,-1060.67"/>
<text text-anchor="middle" x="1398" y="-1045.47" font-family="Arial" font-size="14.00" fill="#cfffac">config.ts</text>
</g>
<!-- contour.ts -->
<g id="node2" class="node">
<title>contour.ts</title>
<path fill="none" stroke="#ff6c60" d="M586.33,-340.67C586.33,-340.67 526.67,-340.67 526.67,-340.67 522.83,-340.67 519,-336.84 519,-333.01 519,-333.01 519,-325.34 519,-325.34 519,-321.51 522.83,-317.67 526.67,-317.67 526.67,-317.67 586.33,-317.67 586.33,-317.67 590.17,-317.67 594,-321.51 594,-325.34 594,-325.34 594,-333.01 594,-333.01 594,-336.84 590.17,-340.67 586.33,-340.67"/>
<text text-anchor="middle" x="556.5" y="-325.47" font-family="Arial" font-size="14.00" fill="#ff6c60">contour.ts</text>
</g>
<!-- strand.ts -->
<g id="node3" class="node">
<title>strand.ts</title>
<path fill="none" stroke="#ff6c60" d="M733.83,-252.67C733.83,-252.67 681.17,-252.67 681.17,-252.67 677.33,-252.67 673.5,-248.84 673.5,-245.01 673.5,-245.01 673.5,-237.34 673.5,-237.34 673.5,-233.51 677.33,-229.67 681.17,-229.67 681.17,-229.67 733.83,-229.67 733.83,-229.67 737.67,-229.67 741.5,-233.51 741.5,-237.34 741.5,-237.34 741.5,-245.01 741.5,-245.01 741.5,-248.84 737.67,-252.67 733.83,-252.67"/>
<text text-anchor="middle" x="707.5" y="-237.47" font-family="Arial" font-size="14.00" fill="#ff6c60">strand.ts</text>
</g>
<!-- contour.ts&#45;&gt;strand.ts -->
<g id="edge1" class="edge">
<title>contour.ts&#45;&gt;strand.ts</title>
<path fill="none" stroke="#757575" d="M585.17,-317.55C593.48,-313.52 602.4,-308.63 610,-303.17 628.38,-289.98 627.27,-279.87 646,-267.17 651.6,-263.38 657.83,-259.95 664.12,-256.92"/>
<polygon fill="#757575" stroke="#757575" points="665.62,-260.08 673.29,-252.77 662.74,-253.71 665.62,-260.08"/>
</g>
<!-- types.ts -->
<g id="node4" class="node">
<title>types.ts</title>
<path fill="none" stroke="#cfffac" d="M1541.33,-505.67C1541.33,-505.67 1493.67,-505.67 1493.67,-505.67 1489.83,-505.67 1486,-501.84 1486,-498.01 1486,-498.01 1486,-490.34 1486,-490.34 1486,-486.51 1489.83,-482.67 1493.67,-482.67 1493.67,-482.67 1541.33,-482.67 1541.33,-482.67 1545.17,-482.67 1549,-486.51 1549,-490.34 1549,-490.34 1549,-498.01 1549,-498.01 1549,-501.84 1545.17,-505.67 1541.33,-505.67"/>
<text text-anchor="middle" x="1517.5" y="-490.47" font-family="Arial" font-size="14.00" fill="#cfffac">types.ts</text>
</g>
<!-- contour.ts&#45;&gt;types.ts -->
<g id="edge2" class="edge">
<title>contour.ts&#45;&gt;types.ts</title>
<path fill="none" stroke="#757575" d="M594.24,-317.85C610.04,-313.33 628.8,-308.44 646,-305.17 740.67,-287.17 765.13,-281.17 861.5,-281.17 861.5,-281.17 861.5,-281.17 1221.5,-281.17 1323.61,-281.17 1369.87,-241.88 1450,-305.17 1502.4,-346.56 1513.6,-432.14 1515.93,-472.37"/>
<polygon fill="#757575" stroke="#757575" points="1512.44,-472.61 1516.38,-482.44 1519.43,-472.3 1512.44,-472.61"/>
</g>
<!-- wasm&#45;interface.ts -->
<g id="node5" class="node">
<title>wasm&#45;interface.ts</title>
<path fill="none" stroke="#cfffac" d="M761.33,-408.67C761.33,-408.67 653.67,-408.67 653.67,-408.67 649.83,-408.67 646,-404.84 646,-401.01 646,-401.01 646,-393.34 646,-393.34 646,-389.51 649.83,-385.67 653.67,-385.67 653.67,-385.67 761.33,-385.67 761.33,-385.67 765.17,-385.67 769,-389.51 769,-393.34 769,-393.34 769,-401.01 769,-401.01 769,-404.84 765.17,-408.67 761.33,-408.67"/>
<text text-anchor="middle" x="707.5" y="-393.47" font-family="Arial" font-size="14.00" fill="#cfffac">wasm&#45;interface.ts</text>
</g>
<!-- contour.ts&#45;&gt;wasm&#45;interface.ts -->
<g id="edge3" class="edge">
<title>contour.ts&#45;&gt;wasm&#45;interface.ts</title>
<path fill="none" stroke="#757575" d="M582.78,-340.71C607.29,-351.89 644.66,-368.95 671.92,-381.39"/>
<polygon fill="#757575" stroke="#757575" points="670.55,-384.61 681.1,-385.58 673.46,-378.24 670.55,-384.61"/>
</g>
<!-- strand.ts&#45;&gt;types.ts -->
<g id="edge66" class="edge">
<title>strand.ts&#45;&gt;types.ts</title>
<path fill="none" stroke="#757575" d="M741.71,-241.52C799.29,-242.09 921.36,-243.17 1024.5,-243.17 1024.5,-243.17 1024.5,-243.17 1221.5,-243.17 1323.61,-243.17 1371.59,-201.76 1450,-267.17 1512.49,-319.3 1518.08,-426.74 1517.42,-472.63"/>
<polygon fill="#757575" stroke="#757575" points="1513.92,-472.57 1517.16,-482.66 1520.92,-472.75 1513.92,-472.57"/>
</g>
<!-- crossing&#45;point.ts -->
<g id="node6" class="node">
<title>crossing&#45;point.ts</title>
<path fill="none" stroke="#c6c5fe" d="M1075.33,-214.67C1075.33,-214.67 975.67,-214.67 975.67,-214.67 971.83,-214.67 968,-210.84 968,-207.01 968,-207.01 968,-199.34 968,-199.34 968,-195.51 971.83,-191.67 975.67,-191.67 975.67,-191.67 1075.33,-191.67 1075.33,-191.67 1079.17,-191.67 1083,-195.51 1083,-199.34 1083,-199.34 1083,-207.01 1083,-207.01 1083,-210.84 1079.17,-214.67 1075.33,-214.67"/>
<text text-anchor="middle" x="1025.5" y="-199.47" font-family="Arial" font-size="14.00" fill="#c6c5fe">crossing&#45;point.ts</text>
</g>
<!-- strand.ts&#45;&gt;crossing&#45;point.ts -->
<g id="edge62" class="edge">
<title>strand.ts&#45;&gt;crossing&#45;point.ts</title>
<path fill="none" stroke="#757575" d="M741.54,-237.01C760.18,-234.68 783.88,-231.74 805,-229.17 856.14,-222.96 914,-216.12 957.47,-211.01"/>
<polygon fill="#757575" stroke="#757575" points="958.12,-214.46 967.64,-209.81 957.3,-207.51 958.12,-214.46"/>
</g>
<!-- frame.ts -->
<g id="node8" class="node">
<title>frame.ts</title>
<path fill="none" stroke="#ff6c60" d="M58.33,-642.67C58.33,-642.67 7.67,-642.67 7.67,-642.67 3.83,-642.67 0,-638.84 0,-635.01 0,-635.01 0,-627.34 0,-627.34 0,-623.51 3.83,-619.67 7.67,-619.67 7.67,-619.67 58.33,-619.67 58.33,-619.67 62.17,-619.67 66,-623.51 66,-627.34 66,-627.34 66,-635.01 66,-635.01 66,-638.84 62.17,-642.67 58.33,-642.67"/>
<text text-anchor="middle" x="33" y="-627.47" font-family="Arial" font-size="14.00" fill="#ff6c60">frame.ts</text>
</g>
<!-- strand.ts&#45;&gt;frame.ts -->
<g id="edge63" class="edge">
<title>strand.ts&#45;&gt;frame.ts</title>
<path fill="none" stroke="#757575" d="M694.95,-229.55C659.93,-195.64 550.62,-99.17 440,-99.17 234,-99.17 234,-99.17 234,-99.17 123.08,-99.17 52.72,-509.53 37.24,-609.44"/>
<polygon fill="#757575" stroke="#757575" points="33.74,-609.15 35.69,-619.57 40.66,-610.21 33.74,-609.15"/>
</g>
<!-- node.ts -->
<g id="node13" class="node">
<title>node.ts</title>
<path fill="none" stroke="#ff6c60" d="M155.33,-737.67C155.33,-737.67 109.67,-737.67 109.67,-737.67 105.83,-737.67 102,-733.84 102,-730.01 102,-730.01 102,-722.34 102,-722.34 102,-718.51 105.83,-714.67 109.67,-714.67 109.67,-714.67 155.33,-714.67 155.33,-714.67 159.17,-714.67 163,-718.51 163,-722.34 163,-722.34 163,-730.01 163,-730.01 163,-733.84 159.17,-737.67 155.33,-737.67"/>
<text text-anchor="middle" x="132.5" y="-722.47" font-family="Arial" font-size="14.00" fill="#ff6c60">node.ts</text>
</g>
<!-- strand.ts&#45;&gt;node.ts -->
<g id="edge65" class="edge">
<title>strand.ts&#45;&gt;node.ts</title>
<path fill="none" stroke="#757575" d="M673.28,-243.22C622.87,-246.15 524.03,-251.17 440,-251.17 340,-251.17 340,-251.17 340,-251.17 139.74,-251.17 131.63,-610.67 132.91,-704.16"/>
<polygon fill="#757575" stroke="#757575" points="129.41,-704.5 133.1,-714.43 136.41,-704.37 129.41,-704.5"/>
</g>
<!-- line.ts -->
<g id="node15" class="node">
<title>line.ts</title>
<path fill="none" stroke="#ff6c60" d="M881.83,-174.67C881.83,-174.67 843.17,-174.67 843.17,-174.67 839.33,-174.67 835.5,-170.84 835.5,-167.01 835.5,-167.01 835.5,-159.34 835.5,-159.34 835.5,-155.51 839.33,-151.67 843.17,-151.67 843.17,-151.67 881.83,-151.67 881.83,-151.67 885.67,-151.67 889.5,-155.51 889.5,-159.34 889.5,-159.34 889.5,-167.01 889.5,-167.01 889.5,-170.84 885.67,-174.67 881.83,-174.67"/>
<text text-anchor="middle" x="862.5" y="-159.47" font-family="Arial" font-size="14.00" fill="#ff6c60">line.ts</text>
</g>
<!-- strand.ts&#45;&gt;line.ts -->
<g id="edge64" class="edge">
<title>strand.ts&#45;&gt;line.ts</title>
<path fill="none" stroke="#757575" d="M738.61,-229.64C748.5,-225.48 759.4,-220.5 769,-215.17 786.03,-205.72 788.16,-199.96 805,-190.17 811.66,-186.3 818.95,-182.51 826.03,-179.05"/>
<polygon fill="#757575" stroke="#757575" points="827.94,-182.01 835.45,-174.55 824.92,-175.69 827.94,-182.01"/>
</g>
<!-- crossing&#45;point.ts&#45;&gt;types.ts -->
<g id="edge4" class="edge">
<title>crossing&#45;point.ts&#45;&gt;types.ts</title>
<path fill="none" stroke="#757575" d="M1083.27,-198.71C1185.68,-191.91 1395.74,-184.11 1450,-229.17 1487.8,-260.57 1507.97,-414.72 1514.29,-472.37"/>
<polygon fill="#757575" stroke="#757575" points="1510.84,-472.97 1515.37,-482.54 1517.8,-472.23 1510.84,-472.97"/>
</g>
<!-- drawing.ts -->
<g id="node7" class="node">
<title>drawing.ts</title>
<path fill="none" stroke="#ff6c60" d="M893.83,-642.67C893.83,-642.67 831.17,-642.67 831.17,-642.67 827.33,-642.67 823.5,-638.84 823.5,-635.01 823.5,-635.01 823.5,-627.34 823.5,-627.34 823.5,-623.51 827.33,-619.67 831.17,-619.67 831.17,-619.67 893.83,-619.67 893.83,-619.67 897.67,-619.67 901.5,-623.51 901.5,-627.34 901.5,-627.34 901.5,-635.01 901.5,-635.01 901.5,-638.84 897.67,-642.67 893.83,-642.67"/>
<text text-anchor="middle" x="862.5" y="-627.47" font-family="Arial" font-size="14.00" fill="#ff6c60">drawing.ts</text>
</g>
<!-- drawing.ts&#45;&gt;types.ts -->
<g id="edge11" class="edge">
<title>drawing.ts&#45;&gt;types.ts</title>
<path fill="none" stroke="#757575" d="M901.91,-623.11C1016.95,-598.98 1358.04,-527.42 1475.9,-502.69"/>
<polygon fill="#757575" stroke="#757575" points="1476.88,-506.06 1485.95,-500.58 1475.44,-499.21 1476.88,-506.06"/>
</g>
<!-- drawing.ts&#45;&gt;frame.ts -->
<g id="edge5" class="edge">
<title>drawing.ts&#45;&gt;frame.ts</title>
<path fill="none" stroke="#757575" d="M823.11,-631.17C765.44,-631.17 653.03,-631.17 557.5,-631.17 234,-631.17 234,-631.17 234,-631.17 179.54,-631.17 116.74,-631.17 76.26,-631.17"/>
<polygon fill="#757575" stroke="#757575" points="76.21,-627.67 66.21,-631.17 76.21,-634.67 76.21,-627.67"/>
</g>
<!-- general&#45;utils.ts -->
<g id="node9" class="node">
<title>general&#45;utils.ts</title>
<path fill="none" stroke="#c6c5fe" d="M1442.33,-642.67C1442.33,-642.67 1353.67,-642.67 1353.67,-642.67 1349.83,-642.67 1346,-638.84 1346,-635.01 1346,-635.01 1346,-627.34 1346,-627.34 1346,-623.51 1349.83,-619.67 1353.67,-619.67 1353.67,-619.67 1442.33,-619.67 1442.33,-619.67 1446.17,-619.67 1450,-623.51 1450,-627.34 1450,-627.34 1450,-635.01 1450,-635.01 1450,-638.84 1446.17,-642.67 1442.33,-642.67"/>
<text text-anchor="middle" x="1398" y="-627.47" font-family="Arial" font-size="14.00" fill="#c6c5fe">general&#45;utils.ts</text>
</g>
<!-- drawing.ts&#45;&gt;general&#45;utils.ts -->
<g id="edge6" class="edge">
<title>drawing.ts&#45;&gt;general&#45;utils.ts</title>
<path fill="none" stroke="#757575" d="M901.87,-631.17C993.27,-631.17 1224.51,-631.17 1335.59,-631.17"/>
<polygon fill="#757575" stroke="#757575" points="1335.63,-634.67 1345.63,-631.17 1335.63,-627.67 1335.63,-634.67"/>
</g>
<!-- knot.ts -->
<g id="node10" class="node">
<title>knot.ts</title>
<path fill="none" stroke="#ff6c60" d="M459.33,-360.67C459.33,-360.67 418.67,-360.67 418.67,-360.67 414.83,-360.67 411,-356.84 411,-353.01 411,-353.01 411,-345.34 411,-345.34 411,-341.51 414.83,-337.67 418.67,-337.67 418.67,-337.67 459.33,-337.67 459.33,-337.67 463.17,-337.67 467,-341.51 467,-345.34 467,-345.34 467,-353.01 467,-353.01 467,-356.84 463.17,-360.67 459.33,-360.67"/>
<text text-anchor="middle" x="439" y="-345.47" font-family="Arial" font-size="14.00" fill="#ff6c60">knot.ts</text>
</g>
<!-- drawing.ts&#45;&gt;knot.ts -->
<g id="edge7" class="edge">
<title>drawing.ts&#45;&gt;knot.ts</title>
<path fill="none" stroke="#757575" d="M823.22,-623.96C735.69,-607.15 526.68,-565.18 503,-543.17 453.21,-496.9 442.66,-410.95 440.51,-370.84"/>
<polygon fill="#757575" stroke="#757575" points="444,-370.66 440.09,-360.81 437.01,-370.94 444,-370.66"/>
</g>
<!-- model.ts -->
<g id="node11" class="node">
<title>model.ts</title>
<path fill="none" stroke="#ff6c60" d="M367.33,-965.67C367.33,-965.67 314.67,-965.67 314.67,-965.67 310.83,-965.67 307,-961.84 307,-958.01 307,-958.01 307,-950.34 307,-950.34 307,-946.51 310.83,-942.67 314.67,-942.67 314.67,-942.67 367.33,-942.67 367.33,-942.67 371.17,-942.67 375,-946.51 375,-950.34 375,-950.34 375,-958.01 375,-958.01 375,-961.84 371.17,-965.67 367.33,-965.67"/>
<text text-anchor="middle" x="341" y="-950.47" font-family="Arial" font-size="14.00" fill="#ff6c60">model.ts</text>
</g>
<!-- drawing.ts&#45;&gt;model.ts -->
<g id="edge8" class="edge">
<title>drawing.ts&#45;&gt;model.ts</title>
<path fill="none" stroke="#757575" d="M856.12,-642.92C844.08,-667.93 812.57,-726.79 769,-759.17 633.86,-859.63 553.08,-792.79 411,-883.17 389.46,-896.87 369.69,-918.57 356.89,-934.37"/>
<polygon fill="#757575" stroke="#757575" points="353.96,-932.44 350.53,-942.46 359.46,-936.77 353.96,-932.44"/>
</g>
<!-- mouse.ts -->
<g id="node12" class="node">
<title>mouse.ts</title>
<path fill="none" stroke="#ff6c60" d="M263.33,-1041.67C263.33,-1041.67 206.67,-1041.67 206.67,-1041.67 202.83,-1041.67 199,-1037.84 199,-1034.01 199,-1034.01 199,-1026.34 199,-1026.34 199,-1022.51 202.83,-1018.67 206.67,-1018.67 206.67,-1018.67 263.33,-1018.67 263.33,-1018.67 267.17,-1018.67 271,-1022.51 271,-1026.34 271,-1026.34 271,-1034.01 271,-1034.01 271,-1037.84 267.17,-1041.67 263.33,-1041.67"/>
<text text-anchor="middle" x="235" y="-1026.47" font-family="Arial" font-size="14.00" fill="#ff6c60">mouse.ts</text>
</g>
<!-- drawing.ts&#45;&gt;mouse.ts -->
<g id="edge9" class="edge">
<title>drawing.ts&#45;&gt;mouse.ts</title>
<path fill="none" stroke="#757575" d="M830.11,-642.73C821.31,-646.98 812.19,-652.44 805,-659.17 781.74,-680.95 793.93,-701.33 769,-721.17 724.23,-756.8 700.01,-740.29 646,-759.17 540.12,-796.2 508.31,-795.4 411,-851.17 359.93,-880.44 347.87,-890.81 307,-933.17 283.63,-957.4 261.52,-989.6 248.36,-1010.11"/>
<polygon fill="#757575" stroke="#757575" points="245.36,-1008.32 242.98,-1018.65 251.28,-1012.06 245.36,-1008.32"/>
</g>
<!-- drawing.ts&#45;&gt;node.ts -->
<g id="edge10" class="edge">
<title>drawing.ts&#45;&gt;node.ts</title>
<path fill="none" stroke="#757575" d="M834.41,-642.71C781.96,-663.98 662.5,-707.17 557.5,-707.17 340,-707.17 340,-707.17 340,-707.17 281.75,-707.17 214.65,-714.76 173.15,-720.35"/>
<polygon fill="#757575" stroke="#757575" points="172.6,-716.89 163.17,-721.72 173.56,-723.82 172.6,-716.89"/>
</g>
<!-- webgl/draw&#45;webgl.ts -->
<g id="node14" class="node">
<title>webgl/draw&#45;webgl.ts</title>
<path fill="none" stroke="#ff6c60" d="M1087.33,-904.67C1087.33,-904.67 963.67,-904.67 963.67,-904.67 959.83,-904.67 956,-900.84 956,-897.01 956,-897.01 956,-889.34 956,-889.34 956,-885.51 959.83,-881.67 963.67,-881.67 963.67,-881.67 1087.33,-881.67 1087.33,-881.67 1091.17,-881.67 1095,-885.51 1095,-889.34 1095,-889.34 1095,-897.01 1095,-897.01 1095,-900.84 1091.17,-904.67 1087.33,-904.67"/>
<text text-anchor="middle" x="1025.5" y="-889.47" font-family="Arial" font-size="14.00" fill="#ff6c60">webgl/draw&#45;webgl.ts</text>
</g>
<!-- drawing.ts&#45;&gt;webgl/draw&#45;webgl.ts -->
<g id="edge12" class="edge">
<title>drawing.ts&#45;&gt;webgl/draw&#45;webgl.ts</title>
<path fill="none" stroke="#757575" d="M870.63,-642.77C895.66,-683.51 979.81,-820.44 1011.91,-872.69"/>
<polygon fill="#757575" stroke="#757575" points="1009.06,-874.72 1017.27,-881.41 1015.02,-871.06 1009.06,-874.72"/>
</g>
<!-- frame.ts&#45;&gt;config.ts -->
<g id="edge13" class="edge">
<title>frame.ts&#45;&gt;config.ts</title>
<path fill="none" stroke="#757575" d="M34.98,-642.94C42.61,-730.49 95.76,-1277.17 234,-1277.17 234,-1277.17 234,-1277.17 557.5,-1277.17 897.68,-1277.17 1010.53,-1298.55 1310,-1137.17 1340.81,-1120.57 1367.63,-1089.47 1383.07,-1069.04"/>
<polygon fill="#757575" stroke="#757575" points="1386.06,-1070.88 1389.15,-1060.75 1380.42,-1066.74 1386.06,-1070.88"/>
</g>
<!-- frame.ts&#45;&gt;types.ts -->
<g id="edge16" class="edge">
<title>frame.ts&#45;&gt;types.ts</title>
<path fill="none" stroke="#757575" d="M34.68,-642.91C38.8,-711.49 61.49,-1060.66 102,-1159.17 136.54,-1243.17 143.18,-1315.17 234,-1315.17 234,-1315.17 234,-1315.17 1221.5,-1315.17 1328.53,-1315.17 1385.05,-1324.24 1450,-1239.17 1495.04,-1180.18 1512.67,-632.31 1515.93,-515.87"/>
<polygon fill="#757575" stroke="#757575" points="1519.43,-515.79 1516.2,-505.7 1512.43,-515.6 1519.43,-515.79"/>
</g>
<!-- frame.ts&#45;&gt;node.ts -->
<g id="edge15" class="edge">
<title>frame.ts&#45;&gt;node.ts</title>
<path fill="none" stroke="#757575" d="M45.96,-642.82C62.48,-658.92 92.47,-688.14 112.19,-707.36"/>
<polygon fill="#757575" stroke="#757575" points="109.84,-709.96 119.45,-714.43 114.73,-704.94 109.84,-709.96"/>
</g>
<!-- frame.ts&#45;&gt;line.ts -->
<g id="edge14" class="edge">
<title>frame.ts&#45;&gt;line.ts</title>
<path fill="none" stroke="#757575" d="M34.73,-619.42C38.86,-555.16 60.65,-246.03 102,-161.17 139.18,-84.87 149.13,-23.17 234,-23.17 234,-23.17 234,-23.17 440,-23.17 594.7,-23.17 765.81,-109.16 832.59,-146.36"/>
<polygon fill="#757575" stroke="#757575" points="831.24,-149.62 841.67,-151.48 834.68,-143.52 831.24,-149.62"/>
</g>
<!-- general&#45;utils.ts&#45;&gt;types.ts -->
<g id="edge17" class="edge">
<title>general&#45;utils.ts&#45;&gt;types.ts</title>
<path fill="none" stroke="#757575" d="M1409.02,-619.49C1429.22,-595.93 1475.04,-542.52 1499.83,-513.61"/>
<polygon fill="#757575" stroke="#757575" points="1502.65,-515.69 1506.51,-505.82 1497.34,-511.13 1502.65,-515.69"/>
</g>
<!-- knot.ts&#45;&gt;contour.ts -->
<g id="edge22" class="edge">
<title>knot.ts&#45;&gt;contour.ts</title>
<path fill="none" stroke="#757575" d="M467.08,-344.48C479.53,-342.33 494.65,-339.71 508.85,-337.25"/>
<polygon fill="#757575" stroke="#757575" points="509.71,-340.65 518.97,-335.5 508.52,-333.75 509.71,-340.65"/>
</g>
<!-- knot.ts&#45;&gt;strand.ts -->
<g id="edge29" class="edge">
<title>knot.ts&#45;&gt;strand.ts</title>
<path fill="none" stroke="#757575" d="M455.39,-337.53C467.75,-328.59 485.82,-316.42 503,-308.17 556.13,-282.67 621.44,-263.07 663.51,-251.84"/>
<polygon fill="#757575" stroke="#757575" points="664.64,-255.16 673.42,-249.23 662.86,-248.39 664.64,-255.16"/>
</g>
<!-- knot.ts&#45;&gt;types.ts -->
<g id="edge30" class="edge">
<title>knot.ts&#45;&gt;types.ts</title>
<path fill="none" stroke="#757575" d="M467.12,-350.16C500.69,-351.16 559.62,-352.17 610,-349.17 722.37,-342.49 748.93,-319.17 861.5,-319.17 861.5,-319.17 861.5,-319.17 1221.5,-319.17 1248.91,-319.17 1432.83,-369.99 1450,-383.17 1480.25,-406.39 1499.62,-447.62 1509.24,-472.77"/>
<polygon fill="#757575" stroke="#757575" points="1506.06,-474.26 1512.77,-482.46 1512.64,-471.87 1506.06,-474.26"/>
</g>
<!-- knot.ts&#45;&gt;frame.ts -->
<g id="edge23" class="edge">
<title>knot.ts&#45;&gt;frame.ts</title>
<path fill="none" stroke="#757575" d="M421.49,-360.69C358.72,-404.51 134.56,-560.98 59.04,-613.69"/>
<polygon fill="#757575" stroke="#757575" points="56.79,-611 50.59,-619.59 60.79,-616.74 56.79,-611"/>
</g>
<!-- knot.ts&#45;&gt;line.ts -->
<g id="edge25" class="edge">
<title>knot.ts&#45;&gt;line.ts</title>
<path fill="none" stroke="#757575" d="M445.65,-337.58C455.06,-319.47 475.63,-284.55 503,-265.17 555.82,-227.78 744.95,-186.55 825.15,-170.31"/>
<polygon fill="#757575" stroke="#757575" points="826.15,-173.67 835.27,-168.27 824.77,-166.81 826.15,-173.67"/>
</g>
<!-- knot&#45;utils.ts -->
<g id="node17" class="node">
<title>knot&#45;utils.ts</title>
<path fill="none" stroke="#c6c5fe" d="M1060.33,-125.67C1060.33,-125.67 990.67,-125.67 990.67,-125.67 986.83,-125.67 983,-121.84 983,-118.01 983,-118.01 983,-110.34 983,-110.34 983,-106.51 986.83,-102.67 990.67,-102.67 990.67,-102.67 1060.33,-102.67 1060.33,-102.67 1064.17,-102.67 1068,-106.51 1068,-110.34 1068,-110.34 1068,-118.01 1068,-118.01 1068,-121.84 1064.17,-125.67 1060.33,-125.67"/>
<text text-anchor="middle" x="1025.5" y="-110.47" font-family="Arial" font-size="14.00" fill="#c6c5fe">knot&#45;utils.ts</text>
</g>
<!-- knot.ts&#45;&gt;knot&#45;utils.ts -->
<g id="edge24" class="edge">
<title>knot.ts&#45;&gt;knot&#45;utils.ts</title>
<path fill="none" stroke="#757575" d="M442.33,-337.57C448.01,-312.31 465,-252.04 503,-220.17 640.74,-104.66 870.35,-103.5 972.62,-109.6"/>
<polygon fill="#757575" stroke="#757575" points="972.49,-113.1 982.69,-110.25 972.94,-106.11 972.49,-113.1"/>
</g>
<!-- offset&#45;sketch.ts -->
<g id="node18" class="node">
<title>offset&#45;sketch.ts</title>
<path fill="none" stroke="#ff6c60" d="M602.33,-439.67C602.33,-439.67 510.67,-439.67 510.67,-439.67 506.83,-439.67 503,-435.84 503,-432.01 503,-432.01 503,-424.34 503,-424.34 503,-420.51 506.83,-416.67 510.67,-416.67 510.67,-416.67 602.33,-416.67 602.33,-416.67 606.17,-416.67 610,-420.51 610,-424.34 610,-424.34 610,-432.01 610,-432.01 610,-435.84 606.17,-439.67 602.33,-439.67"/>
<text text-anchor="middle" x="556.5" y="-424.47" font-family="Arial" font-size="14.00" fill="#ff6c60">offset&#45;sketch.ts</text>
</g>
<!-- knot.ts&#45;&gt;offset&#45;sketch.ts -->
<g id="edge26" class="edge">
<title>knot.ts&#45;&gt;offset&#45;sketch.ts</title>
<path fill="none" stroke="#757575" d="M457.04,-360.83C476.32,-374.01 507.91,-395.62 530.1,-410.8"/>
<polygon fill="#757575" stroke="#757575" points="528.16,-413.71 538.39,-416.47 532.11,-407.93 528.16,-413.71"/>
</g>
<!-- options.ts -->
<g id="node19" class="node">
<title>options.ts</title>
<path fill="none" stroke="#ff6c60" d="M736.83,-564.67C736.83,-564.67 678.17,-564.67 678.17,-564.67 674.33,-564.67 670.5,-560.84 670.5,-557.01 670.5,-557.01 670.5,-549.34 670.5,-549.34 670.5,-545.51 674.33,-541.67 678.17,-541.67 678.17,-541.67 736.83,-541.67 736.83,-541.67 740.67,-541.67 744.5,-545.51 744.5,-549.34 744.5,-549.34 744.5,-557.01 744.5,-557.01 744.5,-560.84 740.67,-564.67 736.83,-564.67"/>
<text text-anchor="middle" x="707.5" y="-549.47" font-family="Arial" font-size="14.00" fill="#ff6c60">options.ts</text>
</g>
<!-- knot.ts&#45;&gt;options.ts -->
<g id="edge27" class="edge">
<title>knot.ts&#45;&gt;options.ts</title>
<path fill="none" stroke="#757575" d="M441.02,-360.8C444.26,-390.19 456.97,-467.86 503,-507.17 546.95,-544.71 615.18,-553.32 660.34,-554.49"/>
<polygon fill="#757575" stroke="#757575" points="660.4,-557.99 670.45,-554.63 660.5,-550.99 660.4,-557.99"/>
</g>
<!-- pointed&#45;return.ts -->
<g id="node20" class="node">
<title>pointed&#45;return.ts</title>
<path fill="none" stroke="#c6c5fe" d="M912.33,-59.67C912.33,-59.67 812.67,-59.67 812.67,-59.67 808.83,-59.67 805,-55.84 805,-52.01 805,-52.01 805,-44.34 805,-44.34 805,-40.51 808.83,-36.67 812.67,-36.67 812.67,-36.67 912.33,-36.67 912.33,-36.67 916.17,-36.67 920,-40.51 920,-44.34 920,-44.34 920,-52.01 920,-52.01 920,-55.84 916.17,-59.67 912.33,-59.67"/>
<text text-anchor="middle" x="862.5" y="-44.47" font-family="Arial" font-size="14.00" fill="#c6c5fe">pointed&#45;return.ts</text>
</g>
<!-- knot.ts&#45;&gt;pointed&#45;return.ts -->
<g id="edge28" class="edge">
<title>knot.ts&#45;&gt;pointed&#45;return.ts</title>
<path fill="none" stroke="#757575" d="M441.17,-337.28C444.84,-305.45 458.68,-216.97 503,-161.17 573.13,-72.87 711.92,-52.29 794.73,-48.24"/>
<polygon fill="#757575" stroke="#757575" points="794.94,-51.73 804.79,-47.82 794.65,-44.74 794.94,-51.73"/>
</g>
<!-- model.ts&#45;&gt;config.ts -->
<g id="edge39" class="edge">
<title>model.ts&#45;&gt;config.ts</title>
<path fill="none" stroke="#757575" d="M368.78,-965.75C381.39,-970.82 396.76,-976.44 411,-980.17 606.95,-1031.5 658.94,-1049.17 861.5,-1049.17 861.5,-1049.17 861.5,-1049.17 1026.5,-1049.17 1145.19,-1049.17 1285.28,-1049.17 1354.24,-1049.17"/>
<polygon fill="#757575" stroke="#757575" points="1354.29,-1052.67 1364.29,-1049.17 1354.29,-1045.67 1354.29,-1052.67"/>
</g>
<!-- model.ts&#45;&gt;types.ts -->
<g id="edge41" class="edge">
<title>model.ts&#45;&gt;types.ts</title>
<path fill="none" stroke="#757575" d="M356.01,-965.83C369.41,-976.51 390.57,-992.14 411,-1002.17 507.19,-1049.42 539.46,-1044.56 646,-1056.17 1001.28,-1094.88 1183.17,-1306.92 1450,-1069.17 1492.17,-1031.59 1511.56,-616.5 1515.66,-515.99"/>
<polygon fill="#757575" stroke="#757575" points="1519.16,-515.94 1516.06,-505.81 1512.17,-515.66 1519.16,-515.94"/>
</g>
<!-- model.ts&#45;&gt;knot.ts -->
<g id="edge40" class="edge">
<title>model.ts&#45;&gt;knot.ts</title>
<path fill="none" stroke="#757575" d="M343.83,-942.63C355.46,-869.32 419.03,-468.7 434.57,-370.78"/>
<polygon fill="#757575" stroke="#757575" points="438.04,-371.26 436.15,-360.84 431.12,-370.17 438.04,-371.26"/>
</g>
<!-- mouse.ts&#45;&gt;config.ts -->
<g id="edge42" class="edge">
<title>mouse.ts&#45;&gt;config.ts</title>
<path fill="none" stroke="#757575" d="M249.64,-1041.82C280.8,-1067.19 360.49,-1125.17 438,-1125.17 438,-1125.17 438,-1125.17 863.5,-1125.17 1047.95,-1125.17 1264.71,-1080.1 1354.63,-1059.37"/>
<polygon fill="#757575" stroke="#757575" points="1355.5,-1062.76 1364.45,-1057.09 1353.91,-1055.95 1355.5,-1062.76"/>
</g>
<!-- mouse.ts&#45;&gt;types.ts -->
<g id="edge44" class="edge">
<title>mouse.ts&#45;&gt;types.ts</title>
<path fill="none" stroke="#757575" d="M243.11,-1041.69C254.54,-1059.36 278.63,-1093.18 307,-1113.17 357.94,-1149.07 375.68,-1163.17 438,-1163.17 438,-1163.17 438,-1163.17 708.5,-1163.17 1038.64,-1163.17 1257.89,-1387.66 1450,-1119.17 1485.88,-1069.03 1510.24,-620.26 1515.45,-515.82"/>
<polygon fill="#757575" stroke="#757575" points="1518.95,-515.97 1515.95,-505.81 1511.96,-515.63 1518.95,-515.97"/>
</g>
<!-- mouse.ts&#45;&gt;model.ts -->
<g id="edge43" class="edge">
<title>mouse.ts&#45;&gt;model.ts</title>
<path fill="none" stroke="#757575" d="M251.8,-1018.63C268.82,-1006.19 296.13,-986.23 315.86,-971.82"/>
<polygon fill="#757575" stroke="#757575" points="318.05,-974.55 324.06,-965.82 313.92,-968.9 318.05,-974.55"/>
</g>
<!-- node.ts&#45;&gt;config.ts -->
<g id="edge45" class="edge">
<title>node.ts&#45;&gt;config.ts</title>
<path fill="none" stroke="#757575" d="M133.1,-737.91C131.29,-811.06 131.38,-1201.17 340,-1201.17 340,-1201.17 340,-1201.17 708.5,-1201.17 844.04,-1201.17 1182.6,-1146.43 1310,-1100.17 1332.49,-1092 1355.77,-1078.02 1372.58,-1066.76"/>
<polygon fill="#757575" stroke="#757575" points="1374.94,-1069.38 1381.21,-1060.84 1370.98,-1063.61 1374.94,-1069.38"/>
</g>
<!-- node.ts&#45;&gt;types.ts -->
<g id="edge48" class="edge">
<title>node.ts&#45;&gt;types.ts</title>
<path fill="none" stroke="#757575" d="M133.88,-737.67C136.12,-799.22 149.19,-1089.53 199,-1161.17 239.88,-1219.98 268.38,-1239.17 340,-1239.17 340,-1239.17 340,-1239.17 557.5,-1239.17 765.74,-1239.17 816.26,-1277.17 1024.5,-1277.17 1024.5,-1277.17 1024.5,-1277.17 1221.5,-1277.17 1331.31,-1277.17 1389.12,-1274.57 1450,-1183.17 1487.88,-1126.3 1510.94,-626.64 1515.62,-515.86"/>
<polygon fill="#757575" stroke="#757575" points="1519.11,-516 1516.03,-505.86 1512.12,-515.7 1519.11,-516"/>
</g>
<!-- node.ts&#45;&gt;general&#45;utils.ts -->
<g id="edge46" class="edge">
<title>node.ts&#45;&gt;general&#45;utils.ts</title>
<path fill="none" stroke="#757575" d="M163.17,-727.27C174.39,-727.63 187.28,-727.99 199,-728.17 231,-728.66 239,-728.5 271,-728.17 421.69,-726.62 459.61,-730.87 610,-721.17 922.29,-701.03 999.86,-686.93 1310,-645.17 1318.28,-644.06 1326.99,-642.78 1335.57,-641.46"/>
<polygon fill="#757575" stroke="#757575" points="1336.2,-644.9 1345.54,-639.9 1335.12,-637.99 1336.2,-644.9"/>
</g>
<!-- node.ts&#45;&gt;mouse.ts -->
<g id="edge47" class="edge">
<title>node.ts&#45;&gt;mouse.ts</title>
<path fill="none" stroke="#757575" d="M137.32,-737.72C152.3,-783.05 207.26,-949.28 226.93,-1008.8"/>
<polygon fill="#757575" stroke="#757575" points="223.72,-1010.22 230.18,-1018.61 230.36,-1008.02 223.72,-1010.22"/>
</g>
<!-- webgl/draw&#45;webgl.ts&#45;&gt;config.ts -->
<g id="edge67" class="edge">
<title>webgl/draw&#45;webgl.ts&#45;&gt;config.ts</title>
<path fill="none" stroke="#757575" d="M1089.11,-904.71C1169.65,-919.7 1300.42,-944.64 1310,-950.17 1343.25,-969.39 1370.31,-1005.98 1384.99,-1028.89"/>
<polygon fill="#757575" stroke="#757575" points="1382.09,-1030.85 1390.34,-1037.5 1388.04,-1027.15 1382.09,-1030.85"/>
</g>
<!-- webgl/draw&#45;webgl.ts&#45;&gt;types.ts -->
<g id="edge71" class="edge">
<title>webgl/draw&#45;webgl.ts&#45;&gt;types.ts</title>
<path fill="none" stroke="#757575" d="M1072.15,-881.58C1080.44,-877.96 1088.5,-873.26 1095,-867.17 1123.15,-840.79 1101.42,-812.95 1131,-788.17 1244.49,-693.09 1346.31,-797.85 1450,-692.17 1498.75,-642.49 1511.78,-555.99 1515.25,-515.82"/>
<polygon fill="#757575" stroke="#757575" points="1518.74,-516.02 1516,-505.79 1511.76,-515.5 1518.74,-516.02"/>
</g>
<!-- webgl/draw&#45;webgl.ts&#45;&gt;model.ts -->
<g id="edge69" class="edge">
<title>webgl/draw&#45;webgl.ts&#45;&gt;model.ts</title>
<path fill="none" stroke="#757575" d="M970.83,-904.7C908.19,-917.14 801.34,-935.17 708.5,-935.17 555.5,-935.17 555.5,-935.17 555.5,-935.17 496.37,-935.17 428.39,-942.49 385.33,-948.04"/>
<polygon fill="#757575" stroke="#757575" points="384.66,-944.6 375.2,-949.38 385.57,-951.54 384.66,-944.6"/>
</g>
<!-- graph.ts -->
<g id="node16" class="node">
<title>graph.ts</title>
<path fill="none" stroke="#ff6c60" d="M1245.33,-982.67C1245.33,-982.67 1195.67,-982.67 1195.67,-982.67 1191.83,-982.67 1188,-978.84 1188,-975.01 1188,-975.01 1188,-967.34 1188,-967.34 1188,-963.51 1191.83,-959.67 1195.67,-959.67 1195.67,-959.67 1245.33,-959.67 1245.33,-959.67 1249.17,-959.67 1253,-963.51 1253,-967.34 1253,-967.34 1253,-975.01 1253,-975.01 1253,-978.84 1249.17,-982.67 1245.33,-982.67"/>
<text text-anchor="middle" x="1220.5" y="-967.47" font-family="Arial" font-size="14.00" fill="#ff6c60">graph.ts</text>
</g>
<!-- webgl/draw&#45;webgl.ts&#45;&gt;graph.ts -->
<g id="edge68" class="edge">
<title>webgl/draw&#45;webgl.ts&#45;&gt;graph.ts</title>
<path fill="none" stroke="#757575" d="M1058.48,-904.71C1070.2,-909.33 1083.43,-915.03 1095,-921.17 1111.98,-930.19 1113.58,-937.04 1131,-945.17 1145.88,-952.12 1163.04,-957.67 1178.26,-961.83"/>
<polygon fill="#757575" stroke="#757575" points="1177.38,-965.22 1187.94,-964.37 1179.15,-958.45 1177.38,-965.22"/>
</g>
<!-- primitives.ts -->
<g id="node22" class="node">
<title>primitives.ts</title>
<path fill="none" stroke="#ff6c60" d="M1257.33,-733.67C1257.33,-733.67 1183.67,-733.67 1183.67,-733.67 1179.83,-733.67 1176,-729.84 1176,-726.01 1176,-726.01 1176,-718.34 1176,-718.34 1176,-714.51 1179.83,-710.67 1183.67,-710.67 1183.67,-710.67 1257.33,-710.67 1257.33,-710.67 1261.17,-710.67 1265,-714.51 1265,-718.34 1265,-718.34 1265,-726.01 1265,-726.01 1265,-729.84 1261.17,-733.67 1257.33,-733.67"/>
<text text-anchor="middle" x="1220.5" y="-718.47" font-family="Arial" font-size="14.00" fill="#ff6c60">primitives.ts</text>
</g>
<!-- webgl/draw&#45;webgl.ts&#45;&gt;primitives.ts -->
<g id="edge70" class="edge">
<title>webgl/draw&#45;webgl.ts&#45;&gt;primitives.ts</title>
<path fill="none" stroke="#757575" d="M1074.19,-881.57C1081.91,-877.98 1089.25,-873.29 1095,-867.17 1131.97,-827.84 1093.13,-789.64 1131,-751.17 1140.49,-741.53 1153.23,-735.09 1166.08,-730.8"/>
<polygon fill="#757575" stroke="#757575" points="1167.28,-734.09 1175.88,-727.91 1165.3,-727.38 1167.28,-734.09"/>
</g>
<!-- webgl/fragment&#45;shader.glsl -->
<g id="node23" class="node">
<title>webgl/fragment&#45;shader.glsl</title>
<path fill="none" stroke="#cfffac" d="M1302.33,-861.67C1302.33,-861.67 1138.67,-861.67 1138.67,-861.67 1134.83,-861.67 1131,-857.84 1131,-854.01 1131,-854.01 1131,-846.34 1131,-846.34 1131,-842.51 1134.83,-838.67 1138.67,-838.67 1138.67,-838.67 1302.33,-838.67 1302.33,-838.67 1306.17,-838.67 1310,-842.51 1310,-846.34 1310,-846.34 1310,-854.01 1310,-854.01 1310,-857.84 1306.17,-861.67 1302.33,-861.67"/>
<text text-anchor="middle" x="1220.5" y="-846.47" font-family="Arial" font-size="14.00" fill="#cfffac">webgl/fragment&#45;shader.glsl</text>
</g>
<!-- webgl/draw&#45;webgl.ts&#45;&gt;webgl/fragment&#45;shader.glsl -->
<g id="edge72" class="edge">
<title>webgl/draw&#45;webgl.ts&#45;&gt;webgl/fragment&#45;shader.glsl</title>
<path fill="none" stroke="#757575" d="M1078.22,-881.65C1102.67,-876.2 1132.04,-869.66 1157.65,-863.95"/>
<polygon fill="#757575" stroke="#757575" points="1158.64,-867.32 1167.64,-861.73 1157.11,-860.49 1158.64,-867.32"/>
</g>
<!-- webgl/init&#45;shaders.ts -->
<g id="node24" class="node">
<title>webgl/init&#45;shaders.ts</title>
<path fill="none" stroke="#cfffac" d="M1282.83,-820.67C1282.83,-820.67 1158.17,-820.67 1158.17,-820.67 1154.33,-820.67 1150.5,-816.84 1150.5,-813.01 1150.5,-813.01 1150.5,-805.34 1150.5,-805.34 1150.5,-801.51 1154.33,-797.67 1158.17,-797.67 1158.17,-797.67 1282.83,-797.67 1282.83,-797.67 1286.67,-797.67 1290.5,-801.51 1290.5,-805.34 1290.5,-805.34 1290.5,-813.01 1290.5,-813.01 1290.5,-816.84 1286.67,-820.67 1282.83,-820.67"/>
<text text-anchor="middle" x="1220.5" y="-805.47" font-family="Arial" font-size="14.00" fill="#cfffac">webgl/init&#45;shaders.ts</text>
</g>
<!-- webgl/draw&#45;webgl.ts&#45;&gt;webgl/init&#45;shaders.ts -->
<g id="edge73" class="edge">
<title>webgl/draw&#45;webgl.ts&#45;&gt;webgl/init&#45;shaders.ts</title>
<path fill="none" stroke="#757575" d="M1066.03,-881.62C1075.92,-877.82 1086.21,-873.02 1095,-867.17 1114.36,-854.27 1110.78,-840.68 1131,-829.17 1134.2,-827.35 1137.55,-825.7 1141.01,-824.19"/>
<polygon fill="#757575" stroke="#757575" points="1142.29,-827.45 1150.34,-820.55 1139.75,-820.92 1142.29,-827.45"/>
</g>
<!-- webgl/vertex&#45;shader.glsl -->
<g id="node25" class="node">
<title>webgl/vertex&#45;shader.glsl</title>
<path fill="none" stroke="#cfffac" d="M1293.33,-902.67C1293.33,-902.67 1147.67,-902.67 1147.67,-902.67 1143.83,-902.67 1140,-898.84 1140,-895.01 1140,-895.01 1140,-887.34 1140,-887.34 1140,-883.51 1143.83,-879.67 1147.67,-879.67 1147.67,-879.67 1293.33,-879.67 1293.33,-879.67 1297.17,-879.67 1301,-883.51 1301,-887.34 1301,-887.34 1301,-895.01 1301,-895.01 1301,-898.84 1297.17,-902.67 1293.33,-902.67"/>
<text text-anchor="middle" x="1220.5" y="-887.47" font-family="Arial" font-size="14.00" fill="#cfffac">webgl/vertex&#45;shader.glsl</text>
</g>
<!-- webgl/draw&#45;webgl.ts&#45;&gt;webgl/vertex&#45;shader.glsl -->
<g id="edge74" class="edge">
<title>webgl/draw&#45;webgl.ts&#45;&gt;webgl/vertex&#45;shader.glsl</title>
<path fill="none" stroke="#757575" d="M1095.09,-892.46C1106.32,-892.34 1118.1,-892.22 1129.75,-892.1"/>
<polygon fill="#757575" stroke="#757575" points="1129.97,-895.6 1139.93,-892 1129.9,-888.6 1129.97,-895.6"/>
</g>
<!-- line.ts&#45;&gt;types.ts -->
<g id="edge34" class="edge">
<title>line.ts&#45;&gt;types.ts</title>
<path fill="none" stroke="#757575" d="M889.61,-160.67C991.95,-151.45 1364.37,-123.5 1450,-196.17 1492.42,-232.18 1509.99,-409.53 1514.94,-472.19"/>
<polygon fill="#757575" stroke="#757575" points="1511.47,-472.79 1515.72,-482.5 1518.45,-472.26 1511.47,-472.79"/>
</g>
<!-- line.ts&#45;&gt;crossing&#45;point.ts -->
<g id="edge31" class="edge">
<title>line.ts&#45;&gt;crossing&#45;point.ts</title>
<path fill="none" stroke="#757575" d="M889.73,-169.69C910.9,-174.95 941.45,-182.54 968.12,-189.16"/>
<polygon fill="#757575" stroke="#757575" points="967.57,-192.63 978.12,-191.65 969.26,-185.84 967.57,-192.63"/>
</g>
<!-- line.ts&#45;&gt;node.ts -->
<g id="edge33" class="edge">
<title>line.ts&#45;&gt;node.ts</title>
<path fill="none" stroke="#757575" d="M835.39,-163.18C723.78,-163.78 288.31,-172.2 199,-266.17 138.09,-330.25 133.47,-621.83 133.4,-704.35"/>
<polygon fill="#757575" stroke="#757575" points="129.9,-704.57 133.41,-714.56 136.9,-704.56 129.9,-704.57"/>
</g>
<!-- line.ts&#45;&gt;knot&#45;utils.ts -->
<g id="edge32" class="edge">
<title>line.ts&#45;&gt;knot&#45;utils.ts</title>
<path fill="none" stroke="#757575" d="M889.73,-155.19C913.24,-148.03 948.32,-137.36 976.79,-128.69"/>
<polygon fill="#757575" stroke="#757575" points="978.01,-131.98 986.56,-125.72 975.97,-125.28 978.01,-131.98"/>
</g>
<!-- graph.ts&#45;&gt;types.ts -->
<g id="edge20" class="edge">
<title>graph.ts&#45;&gt;types.ts</title>
<path fill="none" stroke="#757575" d="M1243.85,-959.57C1290.68,-933.99 1398.97,-867.88 1450,-779.17 1500.77,-690.92 1512.8,-566.2 1515.64,-516.18"/>
<polygon fill="#757575" stroke="#757575" points="1519.15,-516.06 1516.14,-505.9 1512.15,-515.72 1519.15,-516.06"/>
</g>
<!-- graph.ts&#45;&gt;model.ts -->
<g id="edge18" class="edge">
<title>graph.ts&#45;&gt;model.ts</title>
<path fill="none" stroke="#757575" d="M1187.83,-967.27C1162.71,-964.38 1126.67,-960.69 1095,-959.17 923.31,-950.92 880.39,-973.17 708.5,-973.17 555.5,-973.17 555.5,-973.17 555.5,-973.17 496.37,-973.17 428.39,-965.85 385.33,-960.3"/>
<polygon fill="#757575" stroke="#757575" points="385.57,-956.8 375.2,-958.97 384.66,-963.74 385.57,-956.8"/>
</g>
<!-- graph.ts&#45;&gt;mouse.ts -->
<g id="edge19" class="edge">
<title>graph.ts&#45;&gt;mouse.ts</title>
<path fill="none" stroke="#757575" d="M1187.92,-973.07C1044,-981.7 450.06,-1017.33 281.05,-1027.47"/>
<polygon fill="#757575" stroke="#757575" points="280.78,-1023.98 271,-1028.07 281.19,-1030.97 280.78,-1023.98"/>
</g>
<!-- knot&#45;utils.ts&#45;&gt;types.ts -->
<g id="edge21" class="edge">
<title>knot&#45;utils.ts&#45;&gt;types.ts</title>
<path fill="none" stroke="#757575" d="M1068.29,-102.97C1152.28,-83.23 1342.66,-52.84 1450,-149.17 1498.49,-192.69 1512.36,-403.78 1515.62,-472.5"/>
<polygon fill="#757575" stroke="#757575" points="1512.13,-472.77 1516.07,-482.6 1519.12,-472.46 1512.13,-472.77"/>
</g>
<!-- offset&#45;sketch.ts&#45;&gt;config.ts -->
<g id="edge49" class="edge">
<title>offset&#45;sketch.ts&#45;&gt;config.ts</title>
<path fill="none" stroke="#757575" d="M579.43,-439.74C589.96,-446.27 602,-455.3 610,-466.17 639.74,-506.58 620.55,-529.93 646,-573.17 749.72,-749.41 790.21,-793.46 956,-913.17 1025.04,-963.02 1050.09,-964.63 1131,-991.17 1208.05,-1016.45 1301.29,-1033.89 1354.42,-1042.65"/>
<polygon fill="#757575" stroke="#757575" points="1354.06,-1046.14 1364.5,-1044.29 1355.19,-1039.23 1354.06,-1046.14"/>
</g>
<!-- offset&#45;sketch.ts&#45;&gt;strand.ts -->
<g id="edge52" class="edge">
<title>offset&#45;sketch.ts&#45;&gt;strand.ts</title>
<path fill="none" stroke="#757575" d="M566.82,-416.47C591.7,-385.25 659.87,-299.69 690.83,-260.84"/>
<polygon fill="#757575" stroke="#757575" points="693.69,-262.87 697.18,-252.86 688.21,-258.5 693.69,-262.87"/>
</g>
<!-- offset&#45;sketch.ts&#45;&gt;types.ts -->
<g id="edge53" class="edge">
<title>offset&#45;sketch.ts&#45;&gt;types.ts</title>
<path fill="none" stroke="#757575" d="M572.48,-416.53C589.32,-404.14 617.99,-385.13 646,-376.17 737.58,-346.88 765.35,-357.17 861.5,-357.17 861.5,-357.17 861.5,-357.17 1221.5,-357.17 1333.14,-357.17 1448.28,-438.87 1494.94,-476.09"/>
<polygon fill="#757575" stroke="#757575" points="1492.86,-478.91 1502.83,-482.49 1497.27,-473.48 1492.86,-478.91"/>
</g>
<!-- offset&#45;sketch.ts&#45;&gt;general&#45;utils.ts -->
<g id="edge50" class="edge">
<title>offset&#45;sketch.ts&#45;&gt;general&#45;utils.ts</title>
<path fill="none" stroke="#757575" d="M605.35,-439.74C750,-474.72 1182.43,-579.29 1339.32,-617.22"/>
<polygon fill="#757575" stroke="#757575" points="1338.71,-620.68 1349.25,-619.63 1340.36,-613.87 1338.71,-620.68"/>
</g>
<!-- offset&#45;sketch.ts&#45;&gt;options.ts -->
<g id="edge51" class="edge">
<title>offset&#45;sketch.ts&#45;&gt;options.ts</title>
<path fill="none" stroke="#757575" d="M574.39,-439.71C584.86,-447.02 598.45,-456.83 610,-466.17 637.62,-488.51 667.78,-516.3 686.9,-534.37"/>
<polygon fill="#757575" stroke="#757575" points="684.72,-537.12 694.38,-541.47 689.54,-532.05 684.72,-537.12"/>
</g>
<!-- options.ts&#45;&gt;drawing.ts -->
<g id="edge54" class="edge">
<title>options.ts&#45;&gt;drawing.ts</title>
<path fill="none" stroke="#757575" d="M737.1,-564.73C747.28,-569.03 758.75,-574.11 769,-579.17 791.08,-590.08 815.33,-603.78 833.45,-614.38"/>
<polygon fill="#757575" stroke="#757575" points="831.94,-617.55 842.33,-619.61 835.49,-611.52 831.94,-617.55"/>
</g>
<!-- pointed&#45;return.ts&#45;&gt;types.ts -->
<g id="edge56" class="edge">
<title>pointed&#45;return.ts&#45;&gt;types.ts</title>
<path fill="none" stroke="#757575" d="M902.78,-36.6C1007.49,-8.41 1295.77,51.39 1450,-93.17 1505.71,-145.39 1514.75,-395.84 1516.22,-472.09"/>
<polygon fill="#757575" stroke="#757575" points="1512.72,-472.47 1516.39,-482.41 1519.72,-472.35 1512.72,-472.47"/>
</g>
<!-- pointed&#45;return.ts&#45;&gt;knot&#45;utils.ts -->
<g id="edge55" class="edge">
<title>pointed&#45;return.ts&#45;&gt;knot&#45;utils.ts</title>
<path fill="none" stroke="#757575" d="M891.91,-59.82C918.35,-70.66 957.93,-86.88 986.96,-98.78"/>
<polygon fill="#757575" stroke="#757575" points="985.79,-102.09 996.37,-102.64 988.45,-95.61 985.79,-102.09"/>
</g>
<!-- main.tsx -->
<g id="node21" class="node">
<title>main.tsx</title>
<path fill="none" stroke="#c6c5fe" d="M582.83,-498.67C582.83,-498.67 530.17,-498.67 530.17,-498.67 526.33,-498.67 522.5,-494.84 522.5,-491.01 522.5,-491.01 522.5,-483.34 522.5,-483.34 522.5,-479.51 526.33,-475.67 530.17,-475.67 530.17,-475.67 582.83,-475.67 582.83,-475.67 586.67,-475.67 590.5,-479.51 590.5,-483.34 590.5,-483.34 590.5,-491.01 590.5,-491.01 590.5,-494.84 586.67,-498.67 582.83,-498.67"/>
<text text-anchor="middle" x="556.5" y="-483.47" font-family="Arial" font-size="14.00" fill="#c6c5fe">main.tsx</text>
</g>
<!-- main.tsx&#45;&gt;types.ts -->
<g id="edge37" class="edge">
<title>main.tsx&#45;&gt;types.ts</title>
<path fill="none" stroke="#757575" d="M590.77,-485C646.67,-481.54 762.99,-475.17 861.5,-475.17 861.5,-475.17 861.5,-475.17 1221.5,-475.17 1312.57,-475.17 1419.13,-484.3 1475.95,-489.9"/>
<polygon fill="#757575" stroke="#757575" points="1475.67,-493.39 1485.96,-490.91 1476.36,-486.43 1475.67,-493.39"/>
</g>
<!-- main.tsx&#45;&gt;wasm&#45;interface.ts -->
<g id="edge38" class="edge">
<title>main.tsx&#45;&gt;wasm&#45;interface.ts</title>
<path fill="none" stroke="#757575" d="M576.67,-475.59C602.6,-459.93 649.01,-431.9 678.75,-413.93"/>
<polygon fill="#757575" stroke="#757575" points="680.65,-416.88 687.4,-408.71 677.03,-410.88 680.65,-416.88"/>
</g>
<!-- main.tsx&#45;&gt;drawing.ts -->
<g id="edge35" class="edge">
<title>main.tsx&#45;&gt;drawing.ts</title>
<path fill="none" stroke="#757575" d="M590.82,-488.15C634.42,-490.74 711.97,-499.94 769,-532.17 803.38,-551.6 832.44,-588.12 848.38,-610.96"/>
<polygon fill="#757575" stroke="#757575" points="845.69,-613.23 854.2,-619.54 851.49,-609.3 845.69,-613.23"/>
</g>
<!-- main.tsx&#45;&gt;options.ts -->
<g id="edge36" class="edge">
<title>main.tsx&#45;&gt;options.ts</title>
<path fill="none" stroke="#757575" d="M582.62,-498.68C600.31,-506.74 624.55,-517.72 646,-527.17 653.73,-530.58 662.05,-534.19 669.96,-537.6"/>
<polygon fill="#757575" stroke="#757575" points="668.78,-540.9 679.35,-541.63 671.54,-534.47 668.78,-540.9"/>
</g>
<!-- primitives.ts&#45;&gt;config.ts -->
<g id="edge57" class="edge">
<title>primitives.ts&#45;&gt;config.ts</title>
<path fill="none" stroke="#757575" d="M1244.22,-733.86C1264.19,-745.23 1292.71,-764.25 1310,-788.17 1365.69,-865.22 1387.38,-980.24 1394.27,-1027.6"/>
<polygon fill="#757575" stroke="#757575" points="1390.82,-1028.21 1395.65,-1037.64 1397.75,-1027.25 1390.82,-1028.21"/>
</g>
<!-- primitives.ts&#45;&gt;types.ts -->
<g id="edge61" class="edge">
<title>primitives.ts&#45;&gt;types.ts</title>
<path fill="none" stroke="#757575" d="M1265.15,-719.42C1315.53,-714.04 1398.11,-698.15 1450,-651.17 1490.22,-614.76 1506.94,-550.01 1513.19,-516.17"/>
<polygon fill="#757575" stroke="#757575" points="1516.7,-516.4 1514.92,-505.96 1509.8,-515.23 1516.7,-516.4"/>
</g>
<!-- primitives.ts&#45;&gt;general&#45;utils.ts -->
<g id="edge58" class="edge">
<title>primitives.ts&#45;&gt;general&#45;utils.ts</title>
<path fill="none" stroke="#757575" d="M1255.38,-710.54C1272.16,-704.34 1292.51,-696.15 1310,-687.17 1332.18,-675.79 1355.89,-660.28 1372.94,-648.48"/>
<polygon fill="#757575" stroke="#757575" points="1375.03,-651.29 1381.21,-642.68 1371.01,-645.55 1375.03,-651.29"/>
</g>
<!-- primitives.ts&#45;&gt;knot.ts -->
<g id="edge59" class="edge">
<title>primitives.ts&#45;&gt;knot.ts</title>
<path fill="none" stroke="#757575" d="M1175.84,-727.95C1051.38,-741.76 691.64,-762.76 503,-575.17 446.15,-518.64 439.48,-415.45 439.43,-370.76"/>
<polygon fill="#757575" stroke="#757575" points="442.93,-370.76 439.53,-360.72 435.93,-370.68 442.93,-370.76"/>
</g>
<!-- primitives.ts&#45;&gt;model.ts -->
<g id="edge60" class="edge">
<title>primitives.ts&#45;&gt;model.ts</title>
<path fill="none" stroke="#757575" d="M1175.96,-729.63C1161.54,-732.47 1145.47,-736.04 1131,-740.17 938.38,-795.19 908.82,-897.17 708.5,-897.17 555.5,-897.17 555.5,-897.17 555.5,-897.17 490.86,-897.17 418.82,-921.86 377.13,-938.74"/>
<polygon fill="#757575" stroke="#757575" points="375.61,-935.58 367.7,-942.64 378.28,-942.05 375.61,-935.58"/>
</g>
</g>
</svg>
